<svg xmlns="http://www.w3.org/2000/svg" viewBox="0 0 40 40" focusable="false"
    class="chakra-icon chakra-icon css-1d6j3uy">
    <path fill="white"
        d="M34.638 5.25a.994.994 0 00-1.254-.051c-9.068 6.714-17.675 13.852-19.842 20.697-3.24-.393-4.313 1.492-5.256 3.186-.652 1.16-1.314 2.35-2.748 3.115a1.019 1.019 0 00-.532.948c.02.393.27.736.632.887 1.384.555 3.09.968 4.775.968 1.384 0 2.748-.272 3.892-.978 1.053-.635 2.327-1.925 2.748-4.375 1.144-.464 2.277-1.15 3.38-2.047.02-.02.05-.03.07-.05 0 0 .011-.02.021-.03 5.176-4.225 9.9-12.603 14.354-21.03.221-.414.12-.928-.23-1.24h-.01zM16.39 27.75l-1.023-1.028c.2-.675.471-1.351.813-2.037l2.066 2.047c-.612.413-1.234.756-1.856 1.018zm-3.14 4.537c-1.404.847-3.36.817-5.075.424.852-.858 1.384-1.815 1.855-2.642.943-1.684 1.465-2.55 3.742-2.097l1.294 1.29c-.23 1.402-.822 2.43-1.806 3.025h-.01zm6.58-6.815l-2.617-2.591c2.859-4.396 8.135-9.013 13.712-13.318-3.55 6.503-7.252 12.511-11.094 15.909zM6.831 16.41l2.137.715.712 2.148c.311.927.813.927 1.114 0l.712-2.148 2.136-.716c.923-.312.923-.816 0-1.119l-2.136-.715-.712-2.148c-.311-.927-.813-.927-1.114 0l-.712 2.148-2.137.715c-.923.313-.923.817 0 1.12zM16.15 10.25l.953.322.321.958c.281.817.733.817 1.014 0l.32-.958.953-.322c.813-.283.813-.736 0-1.019l-.952-.322-.322-.958c-.28-.817-.732-.817-1.013 0l-.32.958-.954.322c-.812.283-.812.736 0 1.019z"></path>
</svg>