<svg xmlns="http://www.w3.org/2000/svg" viewBox="0 0 40 40" focusable="false"
    class="chakra-icon chakra-icon css-1d6j3uy">
    <path
        d="M31.9934 32.9954H13.1981C12.6444 32.9954 12.1914 33.4464 12.1914 33.9977C12.1914 34.549 12.6444 35 13.1981 35H31.9934C32.5471 35 33.0001 34.549 33.0001 33.9977C33.0001 33.4464 32.5471 32.9954 31.9934 32.9954Z"
        fill="white"></path>
    <path
        d="M28.2886 16.3465C28.4396 16.0357 28.4295 15.6649 28.2383 15.3742C28.057 15.0835 27.7349 14.9031 27.3825 14.9031H26.8893C30.2919 12.8082 33 9.5005 33 6.00234C33 5.45105 32.547 5 31.9933 5C16.198 5 6 15.1737 6 30.9105V33.9876C6 34.5389 6.45302 34.99 7.00671 34.99C7.5604 34.99 8.01342 34.5389 8.01342 33.9876V30.9105C8.01342 29.9382 8.05369 28.9759 8.1443 28.0538C12.8356 28.0037 22.8624 27.292 28.2886 16.3465ZM8.39597 26.0491C10.2282 14.6726 18.6141 7.43568 30.8758 7.02472C30.1309 10.583 25.6913 14.021 21.6946 14.9232C21.1913 15.0334 20.8591 15.5045 20.9195 16.0157C20.9799 16.5269 21.4128 16.9078 21.9161 16.9078H25.7013C20.7785 25.2573 12.7852 25.979 8.39597 26.0491Z"
        fill="white"></path>
</svg>