<svg xmlns="http://www.w3.org/2000/svg" viewBox="0 0 90 40" focusable="false"
    class="chakra-icon chakra-icon css-nkwnat">
    <g clip-path="url(#clip0_12631_209490)">
        <path
            d="M2.15723 29.1796V32.8693H0V22.7223H3.70397C5.03788 22.7223 6.06207 23.0014 6.77654 23.5598C7.49069 24.1181 7.84787 24.9176 7.84809 25.9583C7.9034 27.1905 7.16693 28.3208 6.0174 28.7679C6.44304 29.4397 6.86407 30.1138 7.2805 30.7903C7.69671 31.4669 8.11303 32.1599 8.52946 32.8693H6.01756C5.3363 31.6204 4.63147 30.3905 3.90307 29.1796H2.15723ZM2.15723 27.4624H3.57637C4.24788 27.4624 4.7588 27.3418 5.10912 27.1007C5.45902 26.859 5.63402 26.4782 5.63413 25.9583C5.63413 25.4377 5.46148 25.0544 5.11619 24.8083C4.77069 24.5624 4.26213 24.4395 3.59051 24.4395H2.15723V27.4624ZM17.0722 32.8693C16.8261 32.1223 16.5801 31.3891 16.3343 30.6698H12.2188C11.9726 31.3981 11.7266 32.1313 11.4809 32.8693H9.13915C9.78248 31.0909 10.4377 29.3548 11.1048 27.6609C11.7717 25.9677 12.4458 24.3215 13.1271 22.7223H15.4828C16.1828 24.4064 16.8663 26.0976 17.5335 27.796C18.2005 29.4943 18.8462 31.1854 19.4707 32.8693H17.0722ZM12.8433 28.8531H15.6959C15.4687 28.1907 15.2346 27.5309 14.9934 26.8736C14.7522 26.216 14.5133 25.5703 14.2767 24.9364C13.7844 26.2324 13.3066 27.5379 12.8433 28.8531ZM20.7053 22.7223H24.5797C25.6486 22.7223 26.564 22.9209 27.3257 23.3181C28.07 23.6987 28.6775 24.3014 29.064 25.0428C29.4614 25.7946 29.6601 26.7051 29.6598 27.7742C29.6598 28.8436 29.4589 29.7589 29.0569 30.5202C28.6699 31.2664 28.0632 31.8759 27.3186 32.266C26.5616 32.6684 25.6439 32.8694 24.5655 32.869H20.7053V22.7223ZM24.4521 30.9962C25.3978 30.9962 26.124 30.7194 26.6305 30.1657C27.1364 29.6126 27.3894 28.8154 27.3896 27.7743C27.3896 26.7436 27.1413 25.9561 26.6446 25.4117C26.148 24.8676 25.4218 24.5956 24.4662 24.5958H22.8909V30.9962H24.4521ZM31.3914 22.7223H33.5769V32.8693H31.3914V22.7223ZM40.3464 22.5093C41.0565 22.4993 41.7621 22.6247 42.4253 22.8786C43.0256 23.1116 43.5679 23.4722 44.0148 23.9357C44.4654 24.4121 44.8111 24.9776 45.0296 25.5959C45.5025 27.0171 45.5025 28.5531 45.0296 29.9743C44.8114 30.5969 44.4658 31.1671 44.0148 31.6486C43.5697 32.1161 43.027 32.4796 42.4253 32.7133C41.0829 33.205 39.6097 33.205 38.2672 32.7133C37.6656 32.4796 37.123 32.116 36.6779 31.6486C36.2269 31.1672 35.8812 30.5969 35.6631 29.9743C35.1902 28.5531 35.1902 27.0171 35.6631 25.5959C35.8814 24.9775 36.2271 24.4119 36.6779 23.9357C37.1247 23.4722 37.667 23.1115 38.2672 22.8786C38.9306 22.6247 39.6362 22.4993 40.3464 22.5093ZM40.3464 31.1804C40.872 31.1946 41.3902 31.054 41.8365 30.7762C42.2623 30.4948 42.5936 30.0918 42.7874 29.6196C43.2224 28.4379 43.2224 27.14 42.7874 25.9583C42.5949 25.4871 42.2631 25.0859 41.8365 24.8083C40.9136 24.2788 39.7791 24.2788 38.8562 24.8083C38.4295 25.0857 38.0977 25.487 37.9053 25.9583C37.47 27.1399 37.47 28.438 37.9053 29.6196C38.099 30.0919 38.4303 30.4949 38.8562 30.7762C39.3026 31.0541 39.8208 31.1946 40.3464 31.1804ZM0.0001607 7.15496V20.018H12.8632V7.15496H0.0001607ZM8.97041 16.2327C8.73242 16.5572 8.40631 16.8066 8.0308 16.9512C7.56347 17.1308 7.06539 17.2167 6.5649 17.2041H3.68227V9.96865H6.39761C7.19779 9.96865 7.81761 10.1289 8.25707 10.4493C8.69622 10.7687 8.94421 11.2884 8.91626 11.8307C8.92407 12.1455 8.84219 12.4561 8.68019 12.7263C8.51029 12.9901 8.26768 13.1993 7.98163 13.3284C8.37064 13.4441 8.71322 13.6797 8.96061 14.0014C9.19275 14.3272 9.31194 14.7199 9.30001 15.1197C9.31054 15.5162 9.19515 15.9059 8.97041 16.2327ZM7.13056 12.6959C7.33351 12.5245 7.44454 12.2679 7.43059 12.0026C7.43059 11.4292 7.0403 11.1426 6.25973 11.1426H5.14801V12.9438H6.25973C6.57002 12.9651 6.878 12.8774 7.13056 12.6959ZM6.44679 14.0773H5.14817V16.0304H6.42718C6.7823 16.0524 7.13573 15.966 7.44055 15.7824C7.67429 15.6221 7.80832 15.3522 7.79474 15.0691C7.79474 14.4078 7.34542 14.0771 6.44679 14.0773ZM16.079 7.15496V20.018H28.942V7.15496H16.079ZM25.0492 16.2327C24.8112 16.5572 24.4851 16.8066 24.1096 16.9512C23.6423 17.1308 23.1442 17.2167 22.6437 17.2041H19.7611V9.96865H22.4764C23.2766 9.96865 23.8964 10.1289 24.3359 10.4493C24.775 10.7687 25.023 11.2884 24.9951 11.8307C25.0029 12.1455 24.921 12.4561 24.759 12.7263C24.5891 12.9901 24.3465 13.1993 24.0604 13.3284C24.4494 13.4441 24.792 13.6797 25.0394 14.0014C25.2715 14.3272 25.3907 14.7199 25.3788 15.1197C25.3893 15.5162 25.274 15.9059 25.0492 16.2327ZM23.2094 12.6959C23.4123 12.5245 23.5233 12.2679 23.5094 12.0026C23.5094 11.4292 23.1191 11.1426 22.3385 11.1426H21.2268V12.9438H22.3385C22.6488 12.9651 22.9568 12.8774 23.2094 12.6959ZM22.5256 14.0773H21.227V16.0304H22.506C22.8611 16.0524 23.2145 15.966 23.5194 15.7824C23.7531 15.6221 23.8871 15.3522 23.8735 15.0691C23.8735 14.4078 23.4242 14.0771 22.5256 14.0773ZM32.1578 20.018H45.0208V7.15496H32.1578V20.018ZM41.3961 16.7457C41.0678 16.9219 40.7175 17.0537 40.3544 17.1375C39.9463 17.2348 39.5279 17.2831 39.1083 17.2813C38.5767 17.2891 38.0479 17.2034 37.5459 17.0283C36.6523 16.7232 35.9483 16.0248 35.6361 15.1337C35.4594 14.6355 35.3729 14.1099 35.3808 13.5813C35.3732 13.0617 35.4633 12.5452 35.6464 12.0589C35.8144 11.6195 36.0758 11.2218 36.4124 10.8933C36.7554 10.5634 37.1644 10.3099 37.6124 10.1494C38.1156 9.97137 38.6463 9.88404 39.18 9.89151C39.5631 9.88951 39.9451 9.93113 40.3187 10.0156C40.6645 10.094 40.999 10.2156 41.3144 10.3776V11.7862C41.0344 11.6008 40.7279 11.4587 40.4055 11.3646C40.0703 11.2676 39.7229 11.2192 39.374 11.2208C38.9338 11.2081 38.4973 11.3034 38.1025 11.4985C37.7579 11.6776 37.4763 11.958 37.2957 12.3018C37.0978 12.6986 37.0013 13.1382 37.0147 13.5813C37.0019 14.0249 37.0946 14.4652 37.2854 14.8658C37.4569 15.2106 37.7318 15.4933 38.0717 15.6743C38.4591 15.8695 38.8891 15.9649 39.3227 15.952C40.0552 15.9567 40.774 15.7538 41.3959 15.3667V16.7457H41.3961Z"
            fill="white"></path>
        <path
            d="M64.7943 23.8751H72.291V13.4247C70.9857 15.1975 69.7054 16.9515 68.4501 18.6868C67.1945 20.4223 65.9759 22.1518 64.7943 23.8751ZM70.7158 0.716042C62.9162 0.716042 55.8845 5.41445 52.8999 12.6202C49.9153 19.826 51.5655 28.12 57.0807 33.6351C62.5958 39.1503 70.8898 40.8005 78.0956 37.8159C85.3013 34.8313 89.9998 27.7996 89.9998 20C89.9998 9.34976 81.366 0.716042 70.7158 0.716042ZM80.3041 28.1589H77.5344V33.1071H72.291V28.1589H59.7721V23.8383C61.6674 21.0563 63.5938 18.3235 65.5512 15.6401C67.5084 12.9571 69.6072 10.1753 71.8476 7.2946H77.5344V23.875H80.3041V28.1589Z"
            fill="white"></path>
    </g>
    <defs>
        <clipPath id="clip0_12631_209490">
            <rect width="90" height="38.5679" fill="white" transform="translate(0 0.716042)"></rect>
        </clipPath>
    </defs>
</svg>