<svg xmlns="http://www.w3.org/2000/svg" viewBox="0 0 900.47 277.58" focusable="false"
    class="chakra-icon chakra-icon css-nkwnat">
    <path fill="white"
        d="M86.47 203.87c-8.72.29-17.33-.97-25.94-2-10.6-1.26-21.19-1.46-31.83-.68-5.89.43-11.78.96-17.7.83-.88-.02-1.77-.17-2.63-.36-1.62-.37-2.33-1.56-2.43-3.1-.11-1.58.33-2.96 1.95-3.63 1.55-.64 3.21-.78 4.87-.8 4.13-.06 8.28.11 12.4-.35.7-.08 1.41-.13 2.1-.29 2.54-.59 3.08-1.27 3.17-3.9.01-.41.02-.83.02-1.24 0-51.37-.02-102.75-.03-154.12 0-5.33-.31-10.63-1.67-15.82-1.83-6.95-4.83-9.29-11.96-9.4-4.49-.07-8.98-.02-13.44-.66C1.84 8.14.5 7.58.14 5.78c-.5-2.5.38-3.73 2.9-3.96 3.48-.33 6.96-.12 10.44-.1 10.99.06 21.98.55 32.97-.15 6.37-.4 12.73-.82 19.1-1.07C75.24.11 84.93-.16 94.62.1c11.69.32 23.06 2.3 33.56 7.77 13.03 6.79 21.49 17.17 23.4 31.99 1.84 14.31-2.03 27.04-12.05 37.67-5.24 5.56-11.46 9.85-17.94 13.8-1.87 1.14-3.75 2.25-5.59 3.43-.67.43-1.78.73-1.69 1.61.08.77 1.2.82 1.9 1.07 8.64 3.17 16.79 7.31 24.38 12.53 9.74 6.71 16.96 15.37 19.46 27.14 3.31 15.59 1.55 30.41-8.54 43.38-6.59 8.47-15.5 13.72-25.49 17.29-9.47 3.38-19.28 5.05-29.29 5.76-3.43.24-6.85.23-10.27.31zm-27.96-65.2c0 8.87.01 17.73 0 26.6-.01 6.69.82 13.3 1.68 19.92.71 5.48 3.61 8.65 8.78 10.02.34.09.68.21 1.02.31 7.72 2.16 15.59 2.76 23.52 1.73 11.34-1.47 20.82-6.4 27.73-15.71 5.38-7.24 7.82-15.51 8.55-24.42.82-9.97-.81-19.44-5.5-28.3-4.9-9.25-12.14-16.24-21.35-21.14-12.14-6.45-25.13-8.72-38.75-7.4-3.67.36-5.3 2.26-5.62 5.93-.08.94-.06 1.89-.06 2.84v29.61zm0-86.19v36.16c0 3 .93 3.99 3.88 4.45 1.29.2 2.58.28 3.88.26 12.17-.14 24.32.24 36.42 1.74.76.09 1.53.13 2.21-.38 3.71-2.74 7.43-5.46 10.5-8.94 6.47-7.31 8.36-16.22 8.93-25.58.67-11-2.4-21.04-8.02-30.36-5.33-8.84-12.38-15.86-22.34-19.29-9.96-3.43-20.15-2.79-30.25-.75-3.99.81-5.2 2.79-5.21 6.88-.02 11.94 0 23.87-.01 35.81zM394.99 74.23c0-18.35.04-31.83-.03-45.31-.02-3.18-.37-6.37-1.34-9.44-1.11-3.5-2.76-4.73-6.36-5.16-3.94-.47-7.92.1-11.85-.63-2.7-.5-3.62-1.81-2.96-4.34.32-1.19 1.02-1.99 2.27-2.2.58-.1 1.17-.24 1.75-.24 12.47.12 24.53-2.42 36.51-5.53 4.87-1.26 5.38-.92 5.22 4.15-.44 13.59-.31 27.19-.47 40.78-.15 12.94-.36 25.88-.7 38.82-.35 13-.48 26-.76 39-.18 8.39-.1 16.78-.2 25.18-.03 2.69.7 3.19 3.22 2.17 3.59-1.46 6.77-3.63 9.86-5.92 13.09-9.68 25.4-20.27 37.08-31.61 2.76-2.68 5.33-5.53 7.43-8.78 1.84-2.85 2.89-5.94 2.89-9.35 0-3.05-1-4.04-4.07-4.45-3.12-.41-6.25-.3-9.38-.34-1.07-.01-2.12-.03-3.17-.3-1.82-.46-2.56-1.36-2.5-3.1.06-1.74 1.12-2.5 2.69-2.76 3.62-.61 7.19.13 10.76.45 5.45.49 10.86-.21 16.28-.28 3.84-.05 7.67-.42 11.51-.35 3.16.06 3.6.98 2.03 3.71-2.4 4.17-5.49 7.83-8.59 11.48-10.19 12.02-22.44 21.81-34.46 31.84-1.63 1.36-3.24 2.76-4.79 4.22-2.05 1.94-2.09 2.43-.48 4.82 2.02 2.99 4.34 5.76 6.66 8.52 9.54 11.36 19.03 22.77 28.36 34.3 2.68 3.31 5.66 6.35 9.13 8.87 2.81 2.04 5.89 3.22 9.41 3.09 1.9-.07 3.79.19 5.57.86 1.42.53 2.52 1.48 2.38 3.14-.14 1.63-1.51 1.92-2.81 2.23-1.22.29-2.46.31-3.7.31-8.69 0-17.37-.1-26.06.05-3.09.05-5.38-1.07-7.22-3.37-4.14-5.16-8.08-10.5-12.41-15.5-8.68-10.02-16.44-20.76-24.68-31.11-2.43-3.05-2.47-3.07-5.69-1.04-4.05 2.55-8.05 5.18-12.09 7.75-2.21 1.41-3.31 3.19-3.23 6 .2 6.38.06 12.77.07 19.15 0 .89 0 1.77.02 2.66.14 5.26 1.68 6.73 6.9 7.16 3.84.31 7.68.2 11.52.27 1.37.02 2.71.19 4.01.64 1.68.58 2.47 1.81 2.36 3.51-.12 1.78-1.27 2.44-2.83 2.58-4.01.35-8.04.26-12.05.03-4.37-.25-8.74-.14-13.11-.29-10.93-.37-21.85.34-32.78.42-1.31 0-2.59-.1-3.88-.34-1.28-.23-2.24-.8-2.43-2.19-.19-1.41.24-2.59 1.55-3.3 1.55-.84 3.26-1 4.98-1.05 3.36-.1 6.73.11 10.09-.33 2.91-.37 3.84-1.28 3.87-4.2.03-3.01-.01-6.03.04-9.04.36-22.28.15-44.57.48-66.85.22-14.78.03-29.55.19-39.46zM781.06 84.84c4.01.23 8.02.59 12.03.66 8.87.15 17.71-.54 26.56-.87 2.43-.09 4.85-.04 7.25.31 2.85.41 4.04 2.25 3.49 5.08-.17.85-.66 1.37-1.44 1.64-.96.34-1.95.42-2.97.45-1.83.05-3.66-.11-5.49.18-3.95.64-4.91 1.57-5.53 5.47-.55 3.5.3 6.8 1.49 10.05 1.89 5.17 4.22 10.15 6.45 15.17 5.97 13.45 11.57 27.06 16.99 40.74 1.09 2.76 2.48 5.37 4.28 7.73 1.72 2.25 2.7 2.18 4.12-.33 1.17-2.07 2.03-4.27 2.8-6.51 6.73-19.49 13.5-38.97 19.34-58.76.98-3.3 1.1-6.62.59-10-.31-2.04-1.37-3.32-3.41-3.8-1.05-.25-2.1-.33-3.16-.36-3.25-.08-6.5.04-9.74-.3-2.29-.24-3.11-.99-3.15-3-.04-2.44.63-3.38 2.89-3.6 5.37-.53 10.74.04 16.11.25 5.21.21 10.39.18 15.57-.36 3.47-.36 6.94-.71 10.43-.54 2.37.11 3.42.81 3.79 2.47.41 1.85-.36 3.15-2.46 4.16-1.18.57-2.44.96-3.75.96-1.88 0-3.26.86-4.36 2.31-2.83 3.68-4.92 7.79-6.88 11.96-7.53 16-14.06 32.42-20.59 48.84-14.39 36.16-30.04 71.73-47.97 106.29-.93 1.78-1.77 3.61-2.63 5.42-2.01 4.27-5.37 6.6-10.05 7.13-4.35.49-8.62 1.37-12.81 2.7-3.29 1.04-6.67 1.57-10.14.88-.23-.05-.48-.04-.7-.11-1.5-.47-3.59-.6-3.78-2.4-.18-1.71 1.94-1.8 3.16-2.29 7.88-3.14 14.9-7.46 20.13-14.3 3.55-4.65 7.13-9.28 10.58-14.01 6.99-9.61 13.81-19.34 19.59-29.74.14-.26.3-.51.44-.77 5.17-10.35 4.51-9.02 1.05-17.76-10.87-27.41-22.76-54.41-34.22-81.58-2.34-5.55-4.59-11.14-7.46-16.46-2.14-3.97-5.09-6.29-9.8-5.76-.41.05-.83.01-1.24-.01-1.51-.1-3.05-.15-3.29-2.18-.29-2.45.58-4.01 2.63-4.58.62-.17 1.27-.31 1.92-.34 1.12-.05 2.24-.02 3.36-.02v-.14zM663.25 201.09c-5.61-.24-11.21-.66-16.82-.69-6.91-.04-13.82.24-20.73.41-4.37.11-8.74.44-13.1-.1-1.48-.19-2.59-.75-2.66-2.5-.07-1.74.51-3.01 2.26-3.55 1.25-.39 2.53-.55 3.84-.56 3.96-.04 7.91.05 11.87-.28 4.51-.38 5.78-1.59 5.78-6.03 0-52.02 0-104.03-.02-156.05 0-3.6-.14-7.2-.66-10.78-.64-4.43-2.7-6.34-7.15-6.55-3.01-.14-6.02-.24-9.03-.32-1.07-.03-2.12-.16-3.14-.48-1.77-.55-2.7-1.82-2.62-3.54.08-1.78.94-2.8 3.05-3.04 3.4-.4 6.82-.58 10.23-.88 9.04-.78 17.88-2.54 26.56-5.18 3.46-1.05 5.2.15 5.3 3.8.1 3.79-.59 7.53-.79 11.3-.16 3.12-.55 6.24-.56 9.37-.08 20.1.04 40.2-.18 60.29-.13 12.23-.11 24.47-.31 36.7-.19 11.76-.34 23.52-.73 35.27-.26 7.68-.35 15.36.13 23.03.19 3 .42 6.02 1.37 8.91 1 3.06 2.41 4.1 5.59 4.11 3.55.02 7.1.02 10.58.79 1.22.27 2.42.64 2.84 2.08.59 2.03-.43 3.62-2.57 4-2.76.5-5.54.32-8.32.47zM244.34 190.26c9.69.1 18.77-1.74 27.45-5.53.76-.33 1.54-.62 2.3-.93 1.31-.54 2.3-.12 3.03 1.03.79 1.25-.03 1.97-.89 2.66-5.68 4.62-12.01 8.18-18.65 11.2-7.73 3.53-15.75 6.18-24.3 6.72-9.38.6-18.51-.82-27.33-4.07-12.63-4.66-22.25-12.8-28.18-25-3.72-7.65-5.37-15.82-5.97-24.28-.7-9.97.27-19.72 3.24-29.24 4.29-13.76 11.96-25.16 24.2-33.08 12.85-8.31 26.57-10.29 41.14-5.06 15.56 5.59 27.68 15.36 35.97 29.74 2.3 4 2 4.79-2.45 6.01-9.92 2.72-20.03 4.61-30.15 6.42-12.1 2.16-24.28 3.69-36.52 4.86-3.23.31-6.48.51-9.71.76-3.97.31-5.12 1.49-5.26 5.56-.18 4.98.13 9.92 1.09 14.82 1.54 7.86 4.63 14.99 9.97 21.06 6.04 6.87 13.65 11.19 22.33 13.77 6.16 1.83 12.46 2.7 18.68 2.57zm-45.57-64.25c4.02.04 8.02-.34 12-.86 12.64-1.64 25.15-4.15 37.72-6.25 3.33-.55 3.92-1.62 2.91-4.91-.14-.45-.29-.9-.49-1.33-4.42-9.19-11.07-16.39-19.75-21.69-8.81-5.38-17.88-2.38-23.56 3.16-8.28 8.08-11.88 18.41-13.87 29.46-.35 1.96.13 2.36 2.2 2.4.94.02 1.89 0 2.83 0z"></path>
    <path fill="white"
        d="M504.53 148.35c.03-17.38 3.59-31.64 12.62-44.17 8.7-12.08 20.25-19.84 35.2-22.03 7.81-1.14 15.3.37 22.57 3.14 14.97 5.71 26.53 15.47 34.48 29.41 2.15 3.76 1.79 4.58-2.46 5.73-9.93 2.7-20.02 4.65-30.14 6.41-13.03 2.27-26.13 4.08-39.33 5.03-2.71.19-5.41.43-8.12.68-2.46.23-3.8 1.35-3.95 3.75-.84 13.69 1.43 26.55 10.63 37.36 6.64 7.81 15.31 12.35 25.14 14.7 14.82 3.54 29.31 2.38 43.39-3.56.76-.32 1.53-.62 2.29-.96 1.37-.62 2.4-.22 3.19.99.83 1.28-.1 1.98-.91 2.66-4.53 3.76-9.57 6.73-14.79 9.38-7.79 3.94-15.88 7.26-24.62 8.13-19.12 1.89-36.47-2.36-50.46-16.32-7.79-7.78-11.73-17.6-13.57-28.32-.8-4.67-1.25-9.37-1.15-12.01zm27.33-22.34c4.08.02 8.13-.43 12.18-.92 8.51-1.01 16.91-2.68 25.35-4.1 4.13-.7 8.27-1.4 12.4-2.13 2.7-.48 3.29-1.4 2.72-4.04-.29-1.35-.79-2.61-1.44-3.8-4.4-8.04-10.4-14.61-18.13-19.54-2.92-1.86-6.07-3.2-9.61-3.28-5.95-.15-10.97 2.11-15.15 6.21-6.55 6.42-9.91 14.58-12.31 23.21-.59 2.1-1.11 4.22-1.19 6.43-.05 1.32.42 2.02 1.82 1.96 1.12-.04 2.25 0 3.37 0zM741.94 190.24c10.12.2 19.54-1.99 28.58-5.97.54-.24 1.08-.49 1.65-.64 1.25-.32 2.01.4 2.61 1.36.57.93.02 1.57-.62 2.15-2.91 2.63-6.22 4.71-9.59 6.68-9.42 5.49-19.3 10.02-30.22 11.17-18.92 1.99-36.13-2.29-50.09-15.94-7.96-7.79-12.11-17.7-13.88-28.56-2.58-15.74-1.38-31.16 5.37-45.78 7.22-15.63 18.69-26.7 35.61-31.43 10.96-3.07 21.43-1.11 31.59 3.37 13.05 5.76 23.27 14.75 30.58 27.03 2.84 4.78 2.54 5.66-2.87 7.04-13.29 3.39-26.76 5.88-40.32 7.94-11.98 1.82-24.02 3.02-36.09 3.89-2.65.19-4.05 1.26-4.2 3.9-.86 15.15 2.06 29.15 13.45 40.15 7.7 7.44 17.26 11.19 27.7 12.89 3.62.59 7.27.89 10.75.76zM696.58 126c4.02.02 8.01-.42 11.99-.9 9.26-1.1 18.41-2.95 27.6-4.48 3.49-.58 6.99-1.14 10.47-1.8 2.56-.48 3.2-1.52 2.57-4.02-.26-1.02-.62-2.05-1.1-2.98-4.54-8.82-11.03-15.86-19.56-20.95-2.66-1.59-5.54-2.65-8.7-2.69-6.94-.07-12.4 2.99-16.81 8.11-6.18 7.18-9.34 15.78-11.33 24.88-.21.97-.28 1.98-.39 2.98-.13 1.25.4 1.89 1.71 1.86 1.18-.03 2.36 0 3.54 0zM348.53 201.08c-8.61-.47-17.22-.98-25.83-1.39-6.32-.31-12.64-.11-18.95.41-5.12.42-10.22 1.11-15.38.86-2.86-.14-3.54-.91-3.36-3.74.12-1.86 1.03-2.64 3.41-2.74 3.84-.15 7.68-.22 11.52-.36.82-.03 1.64-.17 2.45-.32 1.42-.26 2.15-1.13 2.16-2.59 0-.71.03-1.42.03-2.13 0-27.61 0-55.21-.01-82.82 0-2.54.05-5.07-.33-7.61-.62-4.12-2.46-5.85-6.63-6.22-3.48-.31-6.96-.31-10.45-.32-2.73 0-3.14-.43-3.15-3.22 0-.59.02-1.18.09-1.77.15-1.35.9-2.08 2.27-2.3 2-.31 4.01-.27 6.01-.19 4.49.18 8.97.33 13.45.56 5.17.27 10.25-.57 15.34-1.24 4.59-.61 5.75.35 5.43 4.97-.21 2.95-.47 5.89-.32 8.85.12 2.3.87 2.76 2.94 1.69 3.37-1.74 6.3-4.17 9.44-6.28 3.98-2.68 8.08-5.14 12.66-6.68 8.37-2.81 19.02.8 24.01 8.1 1.29 1.89 1.9 3.89 1.33 6.2-1.06 4.26-2.51 8.38-4.64 12.23-1.07 1.94-1.94 2.13-3.64.72-1.27-1.05-2.44-2.24-3.54-3.47-5.66-6.3-12.83-8.02-20.93-7.04-2.7.33-5.37.77-7.93 1.79-6.09 2.44-9.05 7.12-9.68 13.46-.13 1.29-.11 2.6-.11 3.9 0 19.86 0 39.72.01 59.59 0 2.36-.09 4.73.47 7.06.51 2.14 1.75 3.58 3.85 4.24 1.7.54 3.46.79 5.23.84 4.9.13 9.81.22 14.71.34.82.02 1.66.04 2.47.2 2.53.5 3.59 2.51 2.65 4.91-.41 1.06-1.34 1.31-2.29 1.36-1.59.07-3.19.02-4.79.02v.14zM69.18 248v9.89c0 4.31-.04 8.63.02 12.94.02 1.36-.43 1.9-1.84 1.87-6.09-.15-5.05.86-5.09-4.98-.06-10.22.02-20.44-.05-30.66-.01-1.75.66-2.17 2.28-2.56 3.5-.85 5.25.58 6.94 3.53 3.92 6.86 8.24 13.49 12.48 20.36.57-.68.37-1.34.38-1.93.02-6.68.05-13.35-.02-20.03-.02-1.66.48-2.32 2.22-2.26 5.7.17 4.91-.82 4.93 4.83.04 10.4.01 20.8 0 31.19 0 2.46-.05 2.28-2.45 2.54-2.84.31-4.45-.73-5.9-3.21-4.04-6.87-8.41-13.55-12.65-20.3-.28-.44-.58-.87-.87-1.31-.13.03-.25.06-.38.1zM663.67 247.96v3.91c0 6.2-.05 12.41.03 18.61.02 1.7-.55 2.24-2.24 2.23-4.71-.05-4.71.02-4.71-4.66v-30.84c0-2.45.13-2.17 2.39-2.73 3.44-.84 5.02.66 6.63 3.45 3.83 6.65 8.01 13.1 12.05 19.63.2.33.46.63.73 1.01.38-.68.22-1.27.22-1.83.01-6.79.04-13.59-.01-20.38-.01-1.56.41-2.24 2.1-2.19 5.75.16 4.8-.74 4.82 4.72.05 10.46.02 20.91.01 31.37 0 2.41-.04 2.2-2.3 2.48-2.87.36-4.46-.79-5.9-3.22-4.07-6.85-8.42-13.54-12.67-20.29-.27-.42-.4-.98-1.16-1.25zM585.16 253.25c.19-2.88.45-5.82 1.36-8.66 2.62-8.21 9.39-11.82 17.48-10.88 8.8 1.02 13.83 6.71 14.6 15.98.4 4.81.2 9.56-1.72 14.1-2.61 6.14-7.37 9.25-13.92 9.53-6.76.29-12.12-2.19-15.3-8.47-1.83-3.62-2.32-7.53-2.49-11.59zm26.3.28c.08-2.71-.17-5.34-1.14-7.87-1.47-3.81-4.15-5.91-7.72-6.02-4.32-.13-7.16 1.52-8.74 5.54-2.15 5.49-2.14 11.11.05 16.58 1.59 3.97 4.39 5.59 8.59 5.48 4.02-.11 6.34-2.46 7.77-5.94 1.03-2.5 1.28-5.14 1.19-7.78zM384.15 252.98c.19 4.07-.45 7.59-1.88 10.96-3.2 7.53-10.15 10.16-17.03 9.23-7.97-1.07-12.62-5.99-14.1-14.58-.81-4.67-.57-9.29.81-13.84 2.52-8.29 9.32-11.75 17.18-11.11 10.5.86 14.33 8.53 15.01 16.92.08.94.01 1.89.01 2.42zm-7.18.94c0-4.85-.68-7.95-2.19-10.32-3.62-5.69-11.99-5.42-14.96.62-2.81 5.71-2.68 11.68-.41 17.52 1.57 4.05 4.31 5.61 8.56 5.49 3.62-.1 6.35-2.16 7.78-5.93.96-2.51 1.31-5.14 1.21-7.39zM186.12 253.34c0-5.68.04-11.35-.02-17.03-.02-1.6.5-2.23 2.15-2.15 4.6.22 9.23-.4 13.8.37 5.27.88 8.3 3.98 9.19 9.17.84 4.92-1.21 9.27-5.65 11.76-.94.52-1.06.8-.28 1.61 1.72 1.77 2.44 4.16 3.64 6.26 1.44 2.51 2.7 5.12 4.11 7.65.76 1.36.36 1.75-1.08 1.7-7.08-.23-5.04 1.27-8.2-5.06-1.27-2.54-2.57-5.06-3.9-7.56-1.06-1.99-2.77-2.74-5-2.67-1.25.04-1.66.51-1.64 1.7.04 3.78-.05 7.57.04 11.35.04 1.65-.46 2.29-2.21 2.27-4.94-.05-4.95.02-4.95-5.01v-14.37zm7.13-7.36v4.24c0 .72.21 1.32 1.07 1.31 2.17-.04 4.36.32 6.49-.34 2.58-.79 3.77-3.28 3.3-6.81-.34-2.5-1.9-3.91-4.55-4.02-1.53-.07-3.06 0-4.59-.05-1.15-.04-1.78.36-1.73 1.61.05 1.35.01 2.71.01 4.06zM624.16 253.42c0-5.73.04-11.46-.03-17.19-.02-1.53.48-2.13 2.04-2.06 4.54.2 9.11-.39 13.62.33 5.13.81 8.5 3.98 9.3 8.45 1.01 5.66-.76 9.73-5.43 12.53-.41.24-1.38.29-.68 1.19 2.84 3.68 4.48 8.03 6.79 12 .54.92.99 1.88 1.45 2.84.35.72.14 1.14-.7 1.15h-5.49c-.97 0-1.22-.82-1.56-1.49-1.75-3.49-3.46-6.99-5.23-10.46-1.14-2.24-2.87-3.49-5.55-3.31-1.21.08-1.67.43-1.66 1.66.05 3.84-.04 7.68.05 11.52.04 1.61-.49 2.28-2.12 2.13-1-.1-2.01-.08-3.01 0-1.42.11-1.84-.56-1.83-1.89.04-5.79.02-11.58.02-17.37zm6.92-7.5v.53q0 5.21 5.24 5.1c4.45-.1 6.72-3.05 5.75-7.48-.5-2.31-1.77-3.51-4.11-3.67-1.82-.12-3.65-.04-5.48-.08-1.1-.03-1.43.54-1.4 1.54.04 1.35 0 2.71 0 4.07zM53.22 248.45c0 3.6-.04 7.21 0 10.81.13 10.22-6.79 15.05-16.38 13.92-8.01-.94-11.88-5.4-12.07-13.73-.18-7.79-.03-15.59-.06-23.39 0-1.34.44-1.92 1.85-1.89 6.25.15 5.22-.92 5.27 5.18.07 7.09.02 14.18.05 21.26.01 2.22.59 4.29 2.61 5.51 2.72 1.65 5.7 1.62 8.5.36 2.64-1.19 3.27-3.75 3.28-6.41.04-7.74.02-15.48.03-23.21 0-2.67 0-2.7 2.62-2.67 5.02.05 4.24-.63 4.29 4.34.04 3.31 0 6.62 0 9.92zM505.2 272.67c-3.84-.09-3.19.64-4.62-3.35-.54-1.5-1.07-3-1.54-4.53-.28-.91-.76-1.36-1.77-1.35-4.13.03-8.27.04-12.4 0-1.09-.01-1.58.49-1.89 1.45-.68 2.08-1.47 4.12-2.13 6.2-.35 1.12-.93 1.68-2.16 1.59-1.06-.08-2.13-.06-3.19 0-1.41.08-1.58-.49-1.15-1.71 4.17-11.61 8.32-23.23 12.44-34.86.37-1.05.98-1.5 2.07-1.55 1.65-.07 3.3-.21 4.94-.37 1.05-.1 1.62.33 1.97 1.33 4.14 11.75 8.31 23.49 12.45 35.24.61 1.73.47 1.87-1.42 1.91h-1.59zm-14.08-30.5c-.13.01-.25.03-.38.04-1.7 4.95-3.4 9.91-5.12 14.86-.34.99.06 1.29.99 1.28 1.83-.01 3.66 0 5.49 0q4.62 0 3.12-4.35c-1.36-3.95-2.73-7.89-4.09-11.84zM737.22 272.67c-3.99-.05-3.25.45-4.55-3.18-.54-1.5-1.12-2.99-1.56-4.52-.34-1.17-1.01-1.55-2.2-1.53-3.96.06-7.92.05-11.88 0-1.13-.01-1.72.38-2.06 1.47-.68 2.14-1.5 4.23-2.19 6.37-.32.99-.87 1.46-1.93 1.41-1.12-.05-2.25-.06-3.37 0-1.45.08-1.55-.53-1.12-1.72 4.17-11.62 8.33-23.25 12.46-34.89.35-.98.95-1.42 1.95-1.48 1.53-.1 3.07-.18 4.59-.38 1.43-.19 2.11.36 2.58 1.72 3.24 9.32 6.57 18.61 9.86 27.91.83 2.34 1.59 4.71 2.5 7.01.57 1.44.24 1.97-1.3 1.82-.59-.06-1.18 0-1.77 0zm-14.26-31.08c-1.86 5.43-3.56 10.46-5.3 15.47-.33.96-.05 1.3.93 1.3 2.95-.02 5.91-.02 8.86 0 .87 0 1.22-.31.91-1.18-1.76-5.07-3.51-10.14-5.4-15.59zM153.77 253.39c0-5.73.04-11.46-.03-17.19-.02-1.53.47-2.07 2.03-2.05 6.38.07 12.76.06 19.14 0 1.43-.01 2.02.44 2.01 1.92-.03 4.8.13 3.92-3.82 3.97-3.48.04-6.97.08-10.46-.02-1.6-.05-2.06.54-1.98 2.06.11 2.06.1 4.14 0 6.2-.06 1.45.44 2 1.92 1.97 3.42-.08 6.85.04 10.28-.05 1.68-.04 2.3.55 2.28 2.25-.05 4.51 0 3.84-3.81 3.88-2.95.03-5.91.06-8.86-.02-1.42-.04-1.86.51-1.82 1.87.08 2.3.08 4.61 0 6.91-.04 1.31.45 1.76 1.75 1.74 4.37-.06 8.74-.03 13.11-.02 2.1 0 2.38.22 2.07 2.2-.61 3.97.49 3.66-4 3.66-5.91 0-11.82-.04-17.72.03-1.61.02-2.17-.48-2.15-2.12.08-5.73.03-11.46.03-17.19zM130.83 263.91c1.58-4.83 3.01-9.27 4.49-13.68 1.6-4.76 3.29-9.48 4.84-14.26.44-1.36 1.14-1.93 2.56-1.81 1 .09 2.01.07 3.01 0 1.6-.11 1.76.55 1.29 1.91-4.05 11.65-8.08 23.32-12.07 35-.38 1.1-.92 1.65-2.15 1.61-7.34-.25-5.45 1.39-7.87-5.49-3.59-10.19-7.06-20.42-10.58-30.64-.79-2.3-.74-2.4 1.7-2.36 5.96.1 4.51-.95 6.4 4.52 2.74 7.92 5.66 15.79 7.87 23.88.09.33.25.64.52 1.31zM231.28 273.36c-4.77-.08-8.55-1.42-12.09-3.61-.91-.56-.97-1.12-.49-2.03 1.94-3.71 1.91-3.73 5.65-2.01 2.45 1.13 5 1.75 7.73 1.51 2.55-.22 4.51-1.7 4.99-3.82.51-2.23-.37-3.93-2.93-5.25-2.41-1.25-4.95-2.25-7.33-3.54-6.14-3.32-8.31-9.91-5-15.39 2.63-4.36 6.92-5.72 11.71-5.63 3.28.06 6.37 1.12 9.28 2.68 1.06.57 1.26 1.13.73 2.24-1.66 3.46-1.62 3.5-5.24 2.12-2.08-.79-4.21-1.18-6.42-.95-1.8.19-3.36.91-3.97 2.77-.62 1.9-.5 3.74 1 5.28 1.32 1.35 3.05 2 4.72 2.73 2.17.94 4.4 1.72 6.38 3.06 4.87 3.29 5.9 10.22 2.15 14.79-2.96 3.6-6.92 4.94-10.86 5.06zM446.91 253.45c-.07 2.14.08 4.25.65 6.32 1.67 6.02 6.3 8.7 12.38 7.19 2.22-.55 4.23-1.56 5.94-3.05 1.06-.92 1.71-.76 2.37.34.24.4.56.76.86 1.13q1.77 2.27-.67 3.99c-4.6 3.23-9.63 4.61-15.25 3.67-5.74-.96-9.75-4.06-11.8-9.51-2.15-5.7-2.27-11.55-.78-17.43 3.15-12.4 15.18-14.49 23.37-11.13 1.64.67 3.14 1.63 4.61 2.63 1.32.89 1.04 1.9.08 2.53-1.18.79-1.1 3.96-3.63 2.25-2.68-1.82-5.47-2.96-8.77-2.76-3.73.22-6.36 1.97-7.9 5.35-1.22 2.69-1.58 5.55-1.47 8.48zM558.6 253.42c0-5.67.04-11.34-.03-17.01-.02-1.65.45-2.3 2.21-2.27 6.08.09 12.17.09 18.25 0 1.75-.03 2.42.47 2.36 2.29-.12 4.14.19 3.58-3.66 3.61-3.43.02-6.85.05-10.28-.01-1.32-.02-1.78.48-1.75 1.77.06 2.18.07 4.37 0 6.56-.04 1.36.45 1.91 1.84 1.88 3.19-.06 6.38-.02 9.57-.02 2.49 0 2.52.03 2.51 2.43-.02 4.03.47 3.66-3.73 3.67-2.78.01-5.55.05-8.33-.02-1.38-.04-1.88.46-1.86 1.85.06 4.13-.03 8.27.04 12.4.03 1.59-.48 2.31-2.14 2.14-.99-.1-2.01-.09-3.01 0-1.6.15-2.04-.59-2.02-2.08.05-5.73.02-11.46.02-17.19zM392.5 253.42c0-5.73.04-11.47-.03-17.2-.02-1.51.43-2.09 2.01-2.07 6.21.07 12.41.06 18.62 0 1.46-.01 1.98.48 1.95 1.95-.1 4.57.41 3.9-3.82 3.94-3.37.03-6.74.05-10.11-.01-1.33-.03-1.77.47-1.73 1.76.07 2.13.09 4.26 0 6.38-.07 1.53.43 2.12 2.01 2.07 3.31-.09 6.62.04 9.93-.05 1.72-.05 2.27.64 2.24 2.3-.08 4.37.23 3.8-3.82 3.83-2.9.02-5.79.04-8.69 0-1.22-.02-1.68.44-1.66 1.66.04 4.2-.04 8.4.04 12.59.03 1.61-.49 2.29-2.13 2.13-1-.1-2.01-.08-3.01 0-1.42.11-1.83-.55-1.82-1.89.05-5.79.02-11.59.02-17.38zM312.85 250.32c.8-.98 1.08-2.01 1.54-2.95 1.93-3.92 3.88-7.84 5.78-11.78.46-.96 1.08-1.46 2.19-1.42 1.47.06 2.96.05 4.43 0 1.37-.04 1.52.48.91 1.58-2.18 3.92-4.33 7.87-6.5 11.8-1.4 2.54-2.78 5.08-4.21 7.6-.46.81-.59 1.64-.59 2.55.01 4.31-.05 8.63.03 12.94.03 1.54-.48 2.06-2.04 2.06-4.9 0-4.9.06-4.9-4.82 0-3.13-.05-6.27.02-9.4.03-1.48-.34-2.76-1.05-4.04-3.4-6.09-6.74-12.21-10.11-18.31-.98-1.77-.85-1.67 1.14-2 4.2-.68 6.64.77 8.01 4.91 1.13 3.4 2.99 6.55 4.53 9.81.22.46.5.89.82 1.47zM283.34 256.43c0 4.67-.05 9.33.03 14 .03 1.64-.44 2.3-2.2 2.28-4.95-.05-4.95.02-4.95-4.99v-24.46q0-2.95-3.04-2.95c-1.71 0-3.43-.03-5.14 0-1.22.03-1.85-.37-1.83-1.73.08-5.17-.53-4.36 4.27-4.39 6.91-.04 13.82-.02 20.73 0 2.05 0 2.27.27 2.04 2.25q-.44 3.82-4.27 3.82c-1.18 0-2.37.08-3.54-.02-1.67-.13-2.14.61-2.12 2.19.07 4.67.03 9.33.02 14zM513.85 253.47c0-5.67.04-11.34-.03-17.01-.02-1.62.4-2.32 2.17-2.31 4.78.04 4.78-.03 4.78 4.79 0 8.56.04 17.13-.04 25.69-.02 1.71.5 2.25 2.21 2.2 4.19-.11 8.39 0 12.58-.05 1.32-.02 1.7.39 1.61 1.75-.31 5.03-.21 4.08-4.43 4.12-5.61.06-11.22-.03-16.83.04-1.55.02-2.07-.5-2.05-2.05.06-5.73.03-11.46.02-17.19zM550.45 253.32c0 5.67-.05 11.34.03 17.01.02 1.71-.43 2.41-2.28 2.38-4.87-.08-4.87 0-4.87-4.9v-31.02c0-2.6 0-2.64 2.52-2.61 5.23.06 4.57-.79 4.6 4.6.03 4.84 0 9.69 0 14.53zM693.71 253.35c0-5.67.04-11.34-.02-17.01-.02-1.57.44-2.33 2.12-2.17 1.05.1 2.13.08 3.19 0 1.42-.1 1.85.56 1.85 1.89-.02 11.58-.02 23.16 0 34.74 0 1.31-.41 1.93-1.84 1.9-6.28-.16-5.2.94-5.28-5.16-.06-4.73-.01-9.45-.01-14.18zM100.54 253.3c0-5.67.05-11.35-.03-17.02-.02-1.65.56-2.16 2.16-2.12 5.61.15 4.76-.74 4.78 4.78.04 10.4.01 20.8.01 31.2 0 2.51-.01 2.51-2.41 2.52q-4.51.02-4.51-4.48v-14.89zM258.93 253.4c0 5.67-.05 11.35.03 17.02.02 1.64-.42 2.3-2.18 2.29-4.77-.05-4.77.02-4.77-4.79v-31.38c0-2.33.02-2.37 2.4-2.34 5.22.05 4.47-.69 4.51 4.5.04 4.9 0 9.81 0 14.71z"></path>
</svg>