<svg xmlns="http://www.w3.org/2000/svg" viewBox="0 0 40 40" focusable="false"
    class="chakra-icon chakra-icon css-1crqejv">
    <svg width="40" height="40" viewBox="0 0 40 40" fill="none" xmlns="http://www.w3.org/2000/svg">
        <g opacity="0.8">
            <path
                d="M27.3844 4H12.6152C11.6359 4 10.6967 4.38901 10.0043 5.08145C9.31186 5.77389 8.92285 6.71305 8.92285 7.69231V36L19.9998 26.1538L31.0767 36V7.69231C31.0767 6.71305 30.6877 5.77389 29.9952 5.08145C29.3028 4.38901 28.3637 4 27.3844 4Z"
                fill="white"></path>
            <path fill-rule="evenodd" clip-rule="evenodd"
                d="M9.2972 4.37435C10.1772 3.49437 11.3707 3 12.6152 3H27.3844C28.6289 3 29.8224 3.49437 30.7024 4.37435C31.5823 5.25432 32.0767 6.44783 32.0767 7.69231V36C32.0767 36.3938 31.8456 36.7509 31.4864 36.9122C31.1271 37.0736 30.7067 37.009 30.4123 36.7474L19.9998 27.4918L9.58722 36.7474C9.29289 37.009 8.87243 37.0736 8.5132 36.9122C8.15396 36.7509 7.92285 36.3938 7.92285 36V7.69231C7.92285 6.44783 8.41722 5.25432 9.2972 4.37435ZM12.6152 5C11.9011 5 11.2163 5.28365 10.7114 5.78856C10.2065 6.29346 9.92285 6.97826 9.92285 7.69231V33.7732L19.3354 25.4064C19.7143 25.0697 20.2853 25.0697 20.6641 25.4064L30.0767 33.7732V7.69231C30.0767 6.97826 29.793 6.29346 29.2881 5.78856C28.7832 5.28365 28.0984 5 27.3844 5H12.6152Z"
                fill="white"></path>
        </g>
    </svg>
</svg>