<svg xmlns="http://www.w3.org/2000/svg" viewBox="0 0 25 24" focusable="false"
    class="chakra-icon chakra-icon css-1crqejv">
    <path
        d="M21.5965 6.35149L12.8407 1.28878C12.7385 1.22745 12.6158 1.2002 12.5 1.2002C12.3842 1.2002 12.2683 1.22745 12.1593 1.28878L3.39666 6.35149C3.18543 6.47414 3.05597 6.699 3.05597 6.9443V17.0629C3.05597 17.3082 3.18543 17.5331 3.39666 17.6557L12.1593 22.7116C12.2615 22.7729 12.3842 22.8002 12.5 22.8002C12.6158 22.8002 12.7317 22.7729 12.8407 22.7116L21.6033 17.6557C21.8146 17.5331 21.944 17.3082 21.944 17.0629V6.9443C21.944 6.699 21.8146 6.47414 21.6033 6.35149H21.5965ZM12.5 2.66518L19.8999 6.93748L15.6957 9.36322C14.9394 8.44335 13.7878 7.85736 12.5068 7.85736C11.2258 7.85736 10.0743 8.44335 9.31792 9.36322L5.11376 6.93748L12.5 2.66518ZM12.5 14.7666C10.9737 14.7666 9.72676 13.5197 9.72676 11.9934C9.72676 10.4671 10.9737 9.22013 12.5 9.22013C14.0263 9.22013 15.2733 10.4671 15.2733 11.9934C15.2733 13.5197 14.0263 14.7666 12.5 14.7666ZM4.41875 8.1231L8.62972 10.5557C8.45938 11.0054 8.36398 11.496 8.36398 12.0002C8.36398 14.0512 9.86303 15.7478 11.8186 16.0749V20.9332L4.41875 16.6609V8.11628V8.1231ZM13.1814 20.9332V16.0749C15.137 15.7478 16.636 14.0512 16.636 12.0002C16.636 11.4892 16.5406 11.0054 16.3703 10.5557L20.5813 8.1231V16.6677L13.1814 20.94V20.9332Z"
        fill="white"></path>
</svg>