<svg xmlns="http://www.w3.org/2000/svg" viewBox="0 0 40 40" focusable="false"
    class="chakra-icon chakra-icon css-1crqejv">
    <path fill="white"
        d="M38 16.038v-.023c0-.034-.011-.056-.023-.09a.85.85 0 00-.056-.294c-.023-.056-.056-.101-.079-.158-.023-.045-.045-.101-.08-.147L29.33 4.546a1.135 1.135 0 00-.892-.43H11.562c-.35 0-.678.159-.892.43l-8.433 10.78s-.045.102-.079.147c-.034.057-.068.102-.079.158a.902.902 0 00-.056.294c0 .034-.023.056-.023.09v.023c0 .135.034.282.079.406.011.034.045.068.068.102.045.079.079.158.135.226L19.16 35.51s.011 0 .023.022c.022.023.056.046.079.068.067.068.146.113.225.158.023.011.046.034.068.045H19.61c.125.045.249.08.384.08.136 0 .26-.035.384-.08H20.435c.022 0 .045-.022.067-.045.08-.045.158-.09.226-.158.023-.022.057-.045.08-.068 0 0 .022 0 .022-.022l16.877-18.74c.056-.067.09-.146.135-.225l.068-.102c.056-.135.079-.27.079-.406H38zm-26.337 1.106l4.888 12.09L5.67 17.144h5.994zm10.905-10.77l3.364 8.512H14.158l3.77-8.512h4.64zm3.342 10.77L20.006 31.74l-5.904-14.596H25.92h-.011zm2.438 0h5.994L23.46 29.234l4.888-12.09zm6.209-2.258h-6.198l-3.364-8.512h2.89l6.672 8.512zM12.115 6.374h3.341l-3.77 8.512H5.443l6.672-8.512z"></path>
</svg>