<svg xmlns="http://www.w3.org/2000/svg" viewBox="0 0 90 40" focusable="false"
    class="chakra-icon chakra-icon css-nkwnat">
    <g clip-path="url(#clip0_12631_209487)">
        <path
            d="M8.66458 10.4103H10.6361C11.8368 10.2334 13.063 10.3889 14.1815 10.8599C15.5847 11.7042 16.6025 13.0633 17.0178 14.6474C17.3118 15.4775 17.3118 15.4775 18.0208 15.1835H18.5743V8.61165H0.0173878V9.77037H0.778341C1.10902 9.76808 1.43601 9.8399 1.73529 9.98056C2.03456 10.1212 2.29853 10.3271 2.50778 10.5832C3.21685 11.7246 3.33791 13.0044 3.33791 19.6628C3.33791 26.7362 3.18226 28.4656 2.50778 29.3476C2.34127 29.5744 2.12569 29.7606 1.87713 29.8923C1.62858 30.0241 1.35347 30.098 1.07235 30.1086C0.0173879 30.2988 0.0173878 30.2815 0.0173878 30.7485C-0.0409522 30.9046 -0.0409522 31.0766 0.0173878 31.2327H11.7257C11.8032 31.08 11.8436 30.9111 11.8436 30.7398C11.8436 30.5685 11.8032 30.3997 11.7257 30.2469C11.4421 30.168 11.1531 30.1102 10.861 30.074C10.545 30.0364 10.2326 29.9728 9.92707 29.8837C9.48955 29.5643 9.14296 29.1363 8.92154 28.6419C8.70012 28.1475 8.61155 27.6039 8.66458 27.0648C8.49164 25.9233 8.40517 23.8307 8.40517 22.1013V20.735H9.09694C9.95881 20.7086 10.8202 20.8018 11.6565 21.0117C12.0572 21.2593 12.3982 21.5923 12.6553 21.9869C12.9124 22.3815 13.0792 22.8281 13.1438 23.2946L13.2995 23.8307H14.3544V16.1693H13.386L13.2303 16.913C13.1648 17.39 12.9883 17.8451 12.715 18.2416C12.4417 18.6381 12.0791 18.9649 11.6565 19.1958C11.2472 19.3176 10.8161 19.3471 10.394 19.2823H8.40517V17.4145C8.40517 15.4775 8.50893 11.396 8.57811 10.7562L8.66458 10.4103ZM89.6023 24.1247C88.7849 22.809 87.5098 21.8419 86.0224 21.4095C84.8821 21.0531 83.828 20.4642 82.9267 19.6801C82.7239 19.4839 82.5721 19.2411 82.4847 18.9728C82.3973 18.7045 82.3768 18.4189 82.4252 18.1409C82.4265 17.5955 82.6442 17.0731 83.0305 16.6881C83.2922 16.4139 83.6236 16.216 83.9891 16.1155C84.3546 16.015 84.7406 16.0156 85.1058 16.1174C85.8618 16.3329 86.5455 16.7488 87.0844 17.3212C87.6233 17.8936 87.9973 18.6011 88.1669 19.3688C88.4436 20.147 88.4782 20.147 88.9797 19.9395L89.291 19.8184V15.5121L89.0662 15.4083C87.3636 14.8104 85.5575 14.5633 83.7568 14.682C82.2061 14.7213 80.726 15.338 79.6062 16.4114C79.0983 16.8868 78.7005 17.4675 78.4406 18.1128C78.1807 18.758 78.065 19.4523 78.1016 20.147C78.1113 21.2091 78.5329 22.2259 79.2776 22.9833C80.1005 23.7927 81.1103 24.3867 82.2176 24.7127C84.8982 25.7677 85.6765 26.4422 85.6765 27.6701C85.688 28.1879 85.5231 28.6942 85.2088 29.1059C84.8945 29.5176 84.4496 29.8102 83.9471 29.9356C83.3432 30.0683 82.7177 30.0683 82.1139 29.9356C81.3232 29.6288 80.6173 29.1375 80.0548 28.5028C79.4923 27.8681 79.0894 27.1083 78.8798 26.2865L78.655 25.7331H78.3437C78.1949 25.7441 78.0489 25.7792 77.9113 25.8369H77.7384V30.7485H78.0324C79.2008 31.1371 80.4063 31.4037 81.6296 31.544H83.359C84.1091 31.599 84.863 31.5289 85.59 31.3365C86.513 31.1662 87.3753 30.7573 88.0913 30.1505C88.8073 29.5437 89.3521 28.7601 89.6715 27.8776C89.8779 27.3847 89.9837 26.8555 89.9828 26.3211C90.0509 25.5683 89.9197 24.8108 89.6023 24.1247ZM73.311 15.1835C72.2747 14.7484 71.158 14.5373 70.0344 14.5642C68.9107 14.591 67.8054 14.8551 66.791 15.3392C65.8375 15.8056 64.9924 16.4667 64.3102 17.28C63.6281 18.0932 63.124 19.0404 62.8306 20.0605C62.4565 21.1733 62.298 22.3472 62.3637 23.5194C62.3513 24.1572 62.4034 24.7945 62.5193 25.4218C62.7986 26.9641 63.5432 28.384 64.653 29.4908C65.7629 30.5976 67.1849 31.3382 68.728 31.6132C69.7329 31.7398 70.7496 31.7398 71.7545 31.6132C72.7972 31.4294 73.7952 31.0478 74.6946 30.489C75.4385 30.072 76.0681 29.478 76.5278 28.7596C76.4983 28.6469 76.4463 28.5413 76.375 28.4492C76.3036 28.357 76.2144 28.2803 76.1127 28.2235C75.9153 28.295 75.729 28.3939 75.5593 28.5175C74.6991 29.0844 73.6833 29.3686 72.6538 29.3303C71.9705 29.3765 71.2855 29.2701 70.6483 29.0189C70.0112 28.7676 69.438 28.3778 68.9701 27.8776C68.6082 27.5414 68.3095 27.1431 68.0881 26.7016C67.5507 25.6264 67.2611 24.4445 67.2407 23.2427V22.5682H76.8218V22.2223C76.8429 21.8768 76.8429 21.5302 76.8218 21.1847C76.8183 19.9635 76.4917 18.765 75.8751 17.711C75.2584 16.657 74.3738 15.7849 73.311 15.1835ZM68.4859 21.1674H67.2753V20.147C67.673 17.5356 68.6588 15.9791 69.8694 15.9791C71.08 15.9791 71.5989 17.5183 71.8237 20.3372V21.1328H70.786L68.4859 21.1674ZM43.6165 14.6128C43.019 14.5896 42.4249 14.7144 41.8871 14.976C40.7182 15.5436 39.7741 16.4877 39.2065 17.6566L38.9816 18.0717V14.6128H38.8952C38.6876 14.6128 32.2887 15.8926 32.0812 15.9791C31.8737 16.0655 31.9428 16.0828 31.9428 16.3941C31.9428 16.7054 31.9428 16.7573 32.0812 16.7746L32.7557 16.913C32.9446 16.9176 33.1299 16.9652 33.2977 17.052C33.4655 17.1389 33.6114 17.2629 33.7242 17.4145C34.1565 17.9852 34.243 18.9883 34.243 23.26C34.3284 25.1831 34.2474 27.1099 34.0009 29.019C33.9428 29.3069 33.7969 29.5696 33.5831 29.771C33.3694 29.9724 33.0984 30.1024 32.8075 30.1432L32.2195 30.2642H31.9947V30.7485C31.932 30.9098 31.932 31.0887 31.9947 31.25H41.6623V30.7485C41.6958 30.583 41.6958 30.4124 41.6623 30.2469C41.0802 30.2242 40.5014 30.149 39.9328 30.0221C39.6232 29.8602 39.37 29.6082 39.2063 29.2995C39.0427 28.9908 38.9764 28.6398 39.0162 28.2927C38.8779 27.2896 38.8087 24.3495 38.8433 22.1013C38.8779 19.853 38.8433 19.7146 39.0335 19.559C39.6122 19.1153 40.3284 18.8888 41.057 18.9191C41.7438 18.9341 42.4181 19.1056 43.0285 19.4206C43.2402 19.5382 43.4672 19.6255 43.703 19.6801C43.703 19.6801 45.4325 15.4948 45.4325 15.3046C45.2111 15.0474 44.9292 14.8495 44.6121 14.7287C44.2951 14.6079 43.9529 14.5681 43.6165 14.6128ZM31.9601 21.8764C31.8998 20.6406 31.545 19.4371 30.9252 18.3661C30.3055 17.2952 29.4389 16.3878 28.3975 15.7196C27.1599 15.052 25.783 14.6839 24.3773 14.6448C22.9717 14.6058 21.5764 14.8969 20.3037 15.4948C18.5042 16.4437 17.1455 18.0568 16.5162 19.9914C15.8663 22.1573 15.8663 24.4664 16.5162 26.6324C16.857 27.8162 17.4939 28.8935 18.3667 29.7627C19.4538 30.8234 20.8556 31.5031 22.3617 31.6997C23.3285 31.7805 24.3004 31.7805 25.2672 31.6997C25.623 31.6455 25.9752 31.5705 26.3222 31.4748C27.7299 31.081 28.9963 30.2945 29.9733 29.2072C30.9503 28.12 31.5975 26.777 31.8391 25.3353C32.0117 24.1908 32.0523 23.0302 31.9601 21.8764ZM24.7657 30.5236C23.0362 31.0425 21.7391 29.3649 21.3068 25.8369C21.148 23.9898 21.148 22.1325 21.3068 20.2854C21.6527 17.4491 22.5347 16.0136 23.9009 16.0136C24.1766 15.9966 24.4523 16.0457 24.7051 16.1571C24.9578 16.2684 25.1802 16.4386 25.3537 16.6535C26.5124 17.8123 27.0831 20.1124 27.0831 23.5713C27.227 25.5288 26.9193 27.4932 26.1838 29.313C25.859 29.8438 25.3565 30.2421 24.7657 30.4372V30.5236ZM55.8956 14.9587C55.4076 14.8959 54.9135 14.8959 54.4255 14.9587C53.4888 14.9579 52.5628 15.1584 51.7103 15.5467L51.1742 15.7715V12.0186C51.2679 10.7521 51.2679 9.4804 51.1742 8.21387C50.9667 8.21387 44.3602 9.47637 44.2564 9.52825C44.2054 9.65593 44.2054 9.79833 44.2564 9.92602C44.2564 10.2892 44.2564 10.2719 45.0347 10.4449C45.2532 10.4939 45.4631 10.5755 45.6573 10.687C45.9949 11.0044 46.2195 11.4234 46.2972 11.8803C46.4941 13.1964 46.5578 14.5291 46.4874 15.858V31.0425L46.9544 31.1462C47.6461 31.3019 49.6004 31.6305 50.2403 31.6997C51.5181 31.8013 52.8019 31.8013 54.0797 31.6997C55.4979 31.5548 56.8498 31.0257 57.9895 30.1693C59.1293 29.313 60.0138 28.1618 60.5477 26.8399C60.8661 25.9915 61.0865 25.1096 61.2049 24.2112C61.3079 22.9943 61.2672 21.7695 61.0839 20.5621C60.8983 19.2086 60.301 17.945 59.3729 16.9427C58.4447 15.9403 57.2307 15.2476 55.8956 14.9587ZM51.3644 30.2296C51.3644 30.0048 51.1915 22.4299 51.2261 19.4033V17.034L51.7276 16.913C52.066 16.8645 52.4096 16.8645 52.748 16.913C53.1222 16.8749 53.4987 16.9599 53.8202 17.1551C54.4661 17.6008 55.0024 18.1873 55.3888 18.8703C55.7753 19.5533 56.0018 20.315 56.0512 21.0982C56.1772 22.3575 56.1772 23.6263 56.0512 24.8857C55.9477 26.716 55.2424 28.4609 54.0451 29.8492C53.7052 30.172 53.2784 30.3884 52.8172 30.4718C52.4681 30.5325 52.1112 30.5325 51.7622 30.4718C51.4336 30.4718 51.4336 30.368 51.4336 30.2296H51.3644Z"
            fill="white"></path>
    </g>
    <defs>
        <clipPath id="clip0_12631_209487">
            <rect width="90" height="23.5723" fill="white" transform="translate(0 8.21387)"></rect>
        </clipPath>
    </defs>
</svg>