<svg xmlns="http://www.w3.org/2000/svg" viewBox="0 0 90 40" focusable="false"
    class="chakra-icon chakra-icon css-nkwnat">
    <g clip-path="url(#clip0_12682_207794)">
        <path
            d="M89.3795 14.1564C89.0175 14.1564 88.7589 13.8979 88.7589 13.5359C88.7589 13.1739 89.0175 12.9153 89.3795 12.9153C89.7415 12.9153 90 13.1739 90 13.5359C90 13.8979 89.7415 14.1564 89.3795 14.1564ZM89.3795 13.0705C89.1209 13.0705 88.8623 13.2773 88.8623 13.5876C88.8623 13.8462 89.0692 14.1047 89.3795 14.1047C89.638 14.1047 89.8966 13.8979 89.8966 13.5876C89.8966 13.2773 89.638 13.0705 89.3795 13.0705Z"
            fill="white"></path>
        <path
            d="M89.638 13.8462H89.5346L89.4312 13.5876H89.276V13.8462H89.1726V13.2256H89.4312C89.4829 13.2256 89.5346 13.2256 89.5863 13.2773C89.638 13.329 89.638 13.329 89.638 13.4325C89.638 13.5359 89.5863 13.5876 89.5346 13.5876L89.638 13.8462ZM89.276 13.5359H89.4312C89.4829 13.5359 89.4829 13.5359 89.5346 13.5359L89.5863 13.4842C89.5863 13.4325 89.5863 13.4325 89.5346 13.4325C89.4829 13.4325 89.4829 13.4325 89.4312 13.4325H89.276V13.5359Z"
            fill="white"></path>
        <path
            d="M15.8439 12.9671H24.0146V15.3458H18.8433V18.9657H22.8252V21.3445H18.8433V26.7744H15.7922V12.9671H15.8439Z"
            fill="white"></path>
        <path
            d="M25.1005 12.9671H29.4444C30.2718 12.9671 30.9441 13.0188 31.3578 13.0705C31.8232 13.1739 32.2369 13.3808 32.7023 13.691C33.1677 14.053 33.5297 14.5184 33.7883 15.0873C34.0468 15.6561 34.202 16.3284 34.202 17.0524C34.202 18.7589 33.5297 20 32.2369 20.6723L34.7708 26.7744H31.4612L29.5995 21.2928H28.0999V26.7744H25.0488V12.9671H25.1005ZM28.0999 15.1907V19.0692H29.4444C30.6338 19.0692 31.2026 18.3969 31.2026 17.0524C31.2026 16.5869 31.0992 16.225 30.9441 15.9147C30.7889 15.6044 30.5821 15.3976 30.3235 15.2941C30.1167 15.1907 29.7547 15.139 29.2893 15.139H28.0999V15.1907Z"
            fill="white"></path>
        <path
            d="M46.1476 12.9671H49.5089L53.0771 21.5514V12.9671H55.4042V26.7744H52.7151L48.5264 16.7938V26.7744H46.1993V12.9671H46.1476Z"
            fill="white"></path>
        <path
            d="M56.4902 12.9671H65.0745V15.5527H62.2303V26.7744H59.1793V15.5527H56.4385V12.9671H56.4902Z"
            fill="white"></path>
        <path d="M66.057 12.9671H69.1081V26.7744H66.057V12.9671Z" fill="white"></path>
        <path
            d="M70.0906 12.9671H78.468V15.3458H73.0899V18.552H77.2787V20.9308H73.0899V24.3439H78.468V26.7744H70.0906V12.9671Z"
            fill="white"></path>
        <path
            d="M79.554 12.9671H83.8979C84.7253 12.9671 85.3976 13.0188 85.8113 13.0705C86.2767 13.1739 86.6904 13.3808 87.1558 13.691C87.6212 14.053 87.9832 14.5184 88.2418 15.0873C88.5003 15.6561 88.6555 16.3284 88.6555 17.0524C88.6555 18.7589 87.9832 20 86.6904 20.6723L89.2243 26.7226H85.9147L84.053 21.2411H82.5534V26.7744H79.5023V12.9671H79.554ZM82.5534 15.1907V19.0692H83.8979C85.0873 19.0692 85.6561 18.3969 85.6561 17.0524C85.6561 16.5869 85.5527 16.225 85.3976 15.9147C85.2424 15.6044 85.0356 15.3976 84.777 15.2941C84.5702 15.1907 84.2082 15.139 83.7428 15.139H82.5534V15.1907Z"
            fill="white"></path>
        <path
            d="M45.1133 19.8448C45.1133 24.6024 43.4585 26.9812 40.0972 26.9812C38.4424 26.9812 37.2013 26.3606 36.3222 25.1713C35.4948 23.9819 35.0811 22.1719 35.0811 19.8448C35.0811 15.0873 36.7359 12.7602 40.0972 12.7602C41.752 12.7602 42.9931 13.329 43.8205 14.5184C44.6996 15.7078 45.1133 17.5178 45.1133 19.8448ZM41.9588 19.8448C41.9588 17.9832 41.8037 16.7421 41.5451 16.1215C41.2866 15.501 40.7695 15.1907 40.1489 15.1907C39.5284 15.1907 39.0629 15.501 38.7527 16.1215C38.4424 16.7421 38.339 17.9832 38.339 19.8448C38.339 21.6548 38.4941 22.8959 38.7527 23.5164C39.0629 24.137 39.4766 24.499 40.1489 24.499C40.7695 24.499 41.2349 24.1887 41.5451 23.5682C41.8037 22.9993 41.9588 21.7065 41.9588 19.8448Z"
            fill="white"></path>
        <path
            d="M21.3255 0.969567C10.7761 -0.219825 1.31268 7.33023 0.123292 17.8279C-1.0661 28.3256 6.48396 37.8407 16.9816 39.0301C27.4793 40.2195 36.9945 32.6695 38.1838 22.1718C39.3732 11.6224 31.8232 2.15896 21.3255 0.969567ZM4.36373 27.0845C3.0192 24.292 2.39865 21.0341 2.76064 17.7245C3.84661 8.31277 12.2758 1.59012 21.6875 2.62437C23.6009 2.83123 25.4108 3.34835 27.0656 4.12404C12.2758 3.86548 3.95003 16.3282 4.36373 27.0845ZM36.7359 21.5512C35.6499 30.9112 27.2208 37.6856 17.809 36.5996C15.6371 36.3411 13.6203 35.7205 11.8104 34.738C4.05346 29.3599 6.38053 18.6036 10.6727 12.8118C16.4645 6.08913 28.7721 3.24493 34.202 10.3813C36.2188 13.6392 37.2013 17.5176 36.7359 21.5512Z"
            fill="white"></path>
    </g>
    <defs>
        <clipPath id="clip0_12682_207794">
            <rect width="90" height="38.3071" fill="white" transform="translate(0 0.846458)"></rect>
        </clipPath>
    </defs>
</svg>