<svg xmlns="http://www.w3.org/2000/svg" viewBox="0 0 20 20" focusable="false"
    class="chakra-icon css-1nxze22" aria-hidden="true">
    <path fill="white"
        d="M7.163 17.5a.519.519 0 00.378-.162.545.545 0 000-.76L5.259 14.3h7.934A4.308 4.308 0 0017.5 10V6.808A4.308 4.308 0 0013.201 2.5H6.807A4.308 4.308 0 002.5 6.8v2.613a.54.54 0 001.077 0V6.8a3.23 3.23 0 013.23-3.225h6.394a3.23 3.23 0 013.23 3.225v3.192a3.23 3.23 0 01-3.23 3.224H5.267l2.282-2.285a.545.545 0 000-.761.54.54 0 00-.763 0l-3.205 3.2a.545.545 0 00-.117.59c.026.061.062.124.117.179l3.205 3.2a.532.532 0 00.377.161z"></path>
</svg>