<svg xmlns="http://www.w3.org/2000/svg" viewBox="0 0 20 20" focusable="false"
    class="chakra-icon css-12ivpu9">
    <path fill-rule="evenodd" clip-rule="evenodd"
        d="M8.07726 8.63333C9.76724 8.63333 11.1409 7.25833 11.1409 5.56667C11.1409 3.875 9.76724 2.5 8.07726 2.5C6.38729 2.5 5.01366 3.875 5.01366 5.56667C5.01366 7.25833 6.38729 8.63333 8.07726 8.63333ZM8.07726 3.5C9.21779 3.5 10.1419 4.425 10.1419 5.56667C10.1419 6.70833 9.21779 7.63333 8.07726 7.63333C6.93674 7.63333 6.01266 6.70833 6.01266 5.56667C6.01266 4.425 6.93674 3.5 8.07726 3.5ZM17.8342 13.2417H15.0786V10.4833C15.0786 10.2083 14.8538 9.98332 14.5791 9.98332C14.3044 9.98332 14.0796 10.2083 14.0796 10.4833V13.2417H11.324C11.0493 13.2417 10.8245 13.4667 10.8245 13.7417C10.8245 14.0167 11.0493 14.2417 11.324 14.2417H14.0796V17C14.0796 17.275 14.3044 17.5 14.5791 17.5C14.8538 17.5 15.0786 17.275 15.0786 17V14.2417H17.8342C18.1089 14.2417 18.3337 14.0167 18.3337 13.7417C18.3337 13.4667 18.1089 13.2417 17.8342 13.2417ZM3.82317 15.6666H10.8745C11.1492 15.6666 11.374 15.8916 11.374 16.1666C11.374 16.4416 11.1492 16.6666 10.8745 16.6666H3.80652C2.62437 16.6666 1.66699 15.675 1.66699 14.4583C1.86679 11.5583 3.51514 9.64162 5.85447 9.53328H10.2501C10.6996 9.55828 11.1076 9.63328 11.4822 9.76662C11.7486 9.85828 11.8818 10.15 11.7902 10.4083C11.6986 10.675 11.4156 10.8083 11.1575 10.7166C10.8661 10.6166 10.5581 10.5583 10.2334 10.5416H5.88777C4.08124 10.625 2.84082 12.1416 2.67432 14.5C2.68264 15.125 3.19047 15.6666 3.82317 15.6666Z"
        fill="white"></path>
</svg>