<svg xmlns="http://www.w3.org/2000/svg" viewBox="0 0 90 40" focusable="false"
    class="chakra-icon chakra-icon css-nkwnat">
    <g clip-path="url(#clip0_12631_209494)">
        <path
            d="M89.82 14C88.515 13.235 86.55 12.875 85.155 12.875C81.465 12.875 79.755 14.525 79.755 16.88C79.755 18.905 81.285 20.135 82.95 20.78C83.775 21.08 84.69 21.395 85.38 21.59C86.49 21.905 86.925 22.43 86.925 23.195C86.925 24.155 86.25 24.725 84.495 24.725C83.295 24.725 81.72 24.245 80.595 23.6L79.545 25.94C80.985 26.765 82.92 27.2 84.525 27.2C87.975 27.2 89.985 25.475 89.985 23.09C89.985 20.825 88.785 20.03 87.435 19.445C86.91 19.235 85.935 18.92 85.425 18.77C83.7 18.29 82.77 17.855 82.77 16.715C82.77 15.875 83.325 15.215 85.215 15.215C86.58 15.215 87.915 15.68 88.83 16.205L89.82 14ZM75.645 13.07V24.365H75.3L71.31 13.07H65.91V26.945H68.835V15.47H69.21L73.155 26.945H78.555V13.07H75.645ZM64.935 14.705C63.735 13.37 61.77 12.86 60 12.86C55.905 12.86 53.415 15.305 53.415 20.015C53.415 24.515 55.335 27.17 59.97 27.17C61.695 27.17 63.51 26.765 64.74 26.045L64.05 23.735C63.06 24.23 61.575 24.56 60.18 24.56C57.27 24.56 56.505 22.7 56.505 19.985C56.505 16.82 57.915 15.305 60.12 15.305C61.425 15.305 62.52 15.875 63.255 16.64L64.935 14.705Z"
            fill="white"></path>
        <path
            d="M10.6347 30.68C16.5297 30.68 21.2997 25.91 21.2997 20.015C21.2997 14.135 16.5297 9.35 10.6347 9.35C4.75473 9.35 -0.0302734 14.12 -0.0302734 20.015C-0.0152734 25.91 4.75473 30.68 10.6347 30.68Z"
            fill="white"></path>
        <path d="M10.2148 15.335V24.68H13.1998V23.855H11.0698V15.335H10.2148Z" fill="#101010"></path>
        <path
            d="M7.24473 17.885C7.94973 17.885 8.51973 17.315 8.51973 16.61C8.51973 15.905 7.94973 15.335 7.24473 15.335C6.53973 15.335 5.96973 15.905 5.96973 16.61C5.96973 17.315 6.53973 17.885 7.24473 17.885Z"
            fill="#101010"></path>
        <path
            d="M11.07 11.105C10.965 11.105 10.755 11.09 10.635 11.09C5.71496 11.09 1.70996 15.095 1.70996 20.015C1.70996 22.4 2.63996 24.635 4.31996 26.33C5.99996 28.01 8.24996 28.94 10.635 28.94C13.02 28.94 15.255 28.01 16.95 26.33C18.63 24.65 19.56 22.4 19.56 20.015V19.61H19.2H13.2V20.435H18.72V20.555C18.435 24.755 14.925 28.1 10.65 28.1C8.48996 28.1 6.46496 27.26 4.93496 25.73C3.38996 24.215 2.54996 22.175 2.54996 20.015C2.54996 17.855 3.38996 15.83 4.91996 14.3C6.44996 12.77 8.47496 11.93 10.635 11.93C10.725 11.93 10.965 11.93 11.07 11.945V11.105Z"
            fill="#101010"></path>
        <path
            d="M43.0349 21.665H45.6449V24.095C45.1649 24.275 44.2199 24.455 43.3349 24.455C40.4549 24.455 39.4949 22.985 39.4949 20.015C39.4949 17.18 40.4099 15.5 43.2899 15.5C44.8949 15.5 45.8099 16.01 46.5599 16.97L48.5549 15.14C47.3399 13.4 45.2099 12.875 43.2149 12.875C38.7299 12.875 36.3599 15.32 36.3599 20C36.3599 24.65 38.4899 27.17 43.1849 27.17C45.3449 27.17 47.4449 26.615 48.5849 25.82V19.085H43.0199V21.665H43.0349ZM29.3399 13.07H26.1299V26.945H35.9849V24.245H29.3399V13.07Z"
            fill="white"></path>
    </g>
    <defs>
        <clipPath id="clip0_12631_209494">
            <rect width="90" height="21.3" fill="white" transform="translate(0 9.35)"></rect>
        </clipPath>
    </defs>
</svg>