<svg xmlns="http://www.w3.org/2000/svg" viewBox="0 0 40 40" focusable="false"
    class="chakra-icon chakra-menu__icon css-n4g5d6"
    aria-hidden="true">
    <svg width="40" height="40" viewBox="0 0 40 40" fill="none" xmlns="http://www.w3.org/2000/svg">
        <path fill-rule="evenodd" clip-rule="evenodd"
            d="M24 12C24 14.291 22.2561 16 20 16C17.7439 16 16 14.291 16 12C16 9.70904 17.7439 8 20 8C22.2561 8 24 9.70904 24 12ZM25.9468 12C25.9468 15.4364 23.3841 18 20 18C16.6159 18 13.9575 15.4364 13.9575 12C13.9575 8.56356 16.6159 6 20 6C23.3841 6 25.9468 8.56356 25.9468 12ZM30.8503 29.073L30.9234 29.4808C31.1513 30.754 30.1881 32 28.9138 32H11.0862C9.81186 32 8.84867 30.754 9.07663 29.4808L9.14965 29.073C9.77223 25.5959 11.6481 22.6615 14.3186 22.3061C15.6816 22.1247 17.9109 22 20 22C22.0891 22 24.3184 22.1247 25.6814 22.3061C28.3519 22.6615 30.2277 25.5959 30.8503 29.073ZM7.14009 28.702C7.84546 24.7625 10.1435 20.9025 14.0532 20.3822C15.5127 20.188 17.8313 20.0585 20 20.0585C22.1687 20.0585 24.4872 20.188 25.9468 20.3822C29.8565 20.9025 32.1545 24.7625 32.8599 28.702L32.9329 29.1098C33.3888 31.6561 31.4624 34 28.9138 34H11.0862C8.53753 34 6.61115 31.6561 7.06707 29.1098L7.14009 28.702Z"
            fill="white"></path>
    </svg>
</svg>