<svg xmlns="http://www.w3.org/2000/svg" viewBox="0 0 83 16" focusable="false"
    class="chakra-icon css-1876van">
    <path fill="white"
        d="M71.569 10.078c.795 0 1.442-.64 1.442-1.425S72.364 7.23 71.57 7.23c-.796 0-1.443.639-1.443 1.424 0 .786.647 1.425 1.443 1.425z"></path>
    <path fill="white"
        d="M67.178 4.15c0 .398.327.72.776 1.038h8.3v7.263h-12.97V5.188h.668c.403 0 .729-.322.729-1.038h2.498zm-2.337 3.113h2.337l.257-.202v-.835h-2.594v1.037zm4.044 1.39c0 1.461 1.204 2.65 2.684 2.65 1.48 0 2.683-1.189 2.683-2.65 0-1.46-1.204-2.588-2.683-2.588-1.48 0-2.684 1.127-2.684 2.588z"></path>
    <path fill="white"
        d="M79.77 12.432L83 4.2 72.014 0l-1.452 4.15h1.42l.79-2.458 8.514 3.256-2.272 5.791-1.721-.704v1.403l2.478.994z"></path>
    <path fill="white"
        d="M35.02 3.682c2.064-.05 3.993 1.573 4.321 3.606.373 1.926-.715 4.007-2.51 4.8-1.752.828-4.006.295-5.212-1.222-.747-.88-1.069-2.05-1.005-3.19V.156h1.742v3.525h2.664zm0 7.05c1.324.035 2.534-1.076 2.63-2.393.167-1.309-.803-2.625-2.099-2.863-.471-.064-.947-.058-1.424-.051a18.4 18.4 0 01-.741 0h-1.03c.005.367.002.734 0 1.102-.003.626-.007 1.253.02 1.879.139 1.312 1.326 2.352 2.644 2.326zM29.454 6.362c-.646-1.614-2.32-2.757-4.065-2.723-1.191-.011-2.364.505-3.189 1.358-1.104 1.111-1.494 2.838-1.025 4.325.512 1.71 2.147 3.014 3.935 3.102.966.012 1.933.01 2.9.008.588 0 1.177-.002 1.765 0V8.747c.011-.805.016-1.635-.321-2.385zm-1.421 3.236c-.002.364-.003.728 0 1.091h-1.475a10.799 10.799 0 00-.584 0c-.552.01-1.108.02-1.623-.205-1.133-.443-1.815-1.737-1.586-2.925.196-1.237 1.374-2.207 2.624-2.177 1.314-.033 2.528 1.064 2.63 2.374.019.614.016 1.228.014 1.842z"></path>
    <path fill="white" d="M11.662 3.64H9.939v8.792h1.723V3.64z"></path>
    <path fill="white"
        d="M9.096 7.506C8.87 5.373 6.862 3.633 4.723 3.682c-.22 0-.443.016-.662.048C2.058 4 .4 5.815.342 7.84.334 9.514.336 11.185.337 12.857V16h1.742v-3.525h1.1c.243-.005.487-.003.732 0 .897.01 1.802.022 2.624-.386 1.728-.761 2.831-2.708 2.561-4.583zM7.347 8.537c-.188 1.246-1.367 2.227-2.624 2.195H2.08V9.31c.007-.199.004-.401 0-.604-.011-.654-.023-1.316.319-1.898.576-1.115 1.997-1.666 3.177-1.247 1.223.376 2.023 1.723 1.772 2.976z"></path>
    <path fill="white"
        d="M16.84 9.191h.063l2.449 3.266h2.135L18.16 7.935l2.951-4.27h-2.135l-2.072 3.014h-.063l-2.073-3.014h-2.135l2.952 4.27-3.329 4.522h2.136L16.84 9.19z"></path>
    <path fill="white"
        d="M48.53 6.362c-.646-1.614-2.32-2.757-4.065-2.723-1.191-.011-2.364.505-3.189 1.358-1.104 1.111-1.494 2.838-1.025 4.325.512 1.71 2.147 3.014 3.935 3.102.966.012 1.933.01 2.9.008.589 0 1.177-.002 1.765 0V8.747c.011-.805.016-1.635-.321-2.385zm-1.421 3.236c-.002.364-.003.728 0 1.091h-1.475a10.799 10.799 0 00-.584 0c-.552.01-1.107.02-1.623-.205-1.133-.443-1.815-1.737-1.586-2.925.196-1.237 1.374-2.207 2.624-2.177 1.314-.033 2.528 1.064 2.63 2.374.019.614.016 1.228.014 1.842z"></path>
    <path fill="white"
        d="M58.443 3.66c-.002 1.045-.001 2.089 0 3.133 0 1.67.002 3.339-.006 5.008-.063 2.135-1.898 4.054-4.04 4.166-.275.014-.55.013-.824.012-.133 0-.266-.001-.399 0v-1.743c.102 0 .205 0 .309.002.65.006 1.321.012 1.89-.351a2.662 2.662 0 001.326-2.334c-1.544 1.246-3.94 1.181-5.442-.104-1.094-.884-1.692-2.305-1.608-3.704V3.66h1.743c.003.585.001 1.17 0 1.754-.003.968-.005 1.936.013 2.903.094 1.278 1.234 2.36 2.514 2.39 1.298.1 2.547-.908 2.74-2.192.051-.498.046-1 .04-1.502-.003-.271-.006-.542 0-.813v-2.54h1.744z"></path>
</svg>