<svg xmlns="http://www.w3.org/2000/svg" viewBox="0 0 40 40" focusable="false"
    class="chakra-icon css-12ivpu9">
    <path fill="white"
        d="M20 4C11.16 4 4 11.16 4 20s7.16 16 16 16 16-7.16 16-16S28.84 4 20 4zm0 30c-7.72 0-14-6.28-14-14S12.28 6 20 6s14 6.28 14 14-6.28 14-14 14z"></path>
    <path fill="white"
        d="M22.18 19h-4.36c-1.17 0-2.13-.96-2.13-2.13s.95-2.13 2.13-2.13h5.77c.55 0 1-.45 1-1s-.45-1-1-1h-2.58v-1.9c0-.55-.45-1-1-1s-1 .45-1 1v1.9h-1.18a4.131 4.131 0 000 8.26h4.36c1.17 0 2.13.95 2.13 2.13s-.95 2.13-2.13 2.13h-5.77c-.55 0-1 .45-1 1s.45 1 1 1H19v1.9c0 .55.45 1 1 1s1-.45 1-1v-1.9h1.18a4.131 4.131 0 000-8.26z"></path>
</svg>