<svg xmlns="http://www.w3.org/2000/svg" viewBox="0 0 40 40" focusable="false"
    class="chakra-icon chakra-icon css-1d6j3uy">
    <svg xmlns="http://www.w3.org/2000/svg" width="40" height="40" viewBox="0 0 40 40" fill="none">
        <path fill-rule="evenodd" clip-rule="evenodd"
            d="M5.3444 25.527C5.2747 25.4613 5.20725 25.3981 5.14225 25.3377C5.14223 25.3376 5.1422 25.3376 5.14218 25.3376C4.98704 25.1933 4.84589 25.0643 4.72155 24.9521C4.35298 24.6195 4.13205 24.4344 4.13205 24.4344C4.05646 24.3801 4.01659 24.3065 4.00906 24.2289C3.97463 24.1181 4.04089 23.9836 4.16405 23.9173C4.16594 23.9156 4.17715 23.9083 4.1971 23.8952L4.19713 23.8952C4.27934 23.8413 4.50992 23.6902 4.84943 23.4357C4.95228 23.3586 5.06512 23.272 5.18686 23.1757L4.40817 24.1049M5.18727 23.1754C5.04083 23.35 4.80098 23.6362 4.40817 24.1049L5.18727 23.1754ZM5.18727 23.1754C5.27613 23.1051 5.36972 23.0297 5.46762 22.9491C5.46851 22.9483 5.46939 22.9476 5.47028 22.9469C6.50336 22.0957 8.01536 20.6646 9.50668 18.5743C9.57067 18.4594 11.5862 15.5869 14.8173 15.0698C16.5449 14.8113 18.2724 15.2709 19.968 16.4486C21.6636 15.2709 23.3911 14.8113 25.1187 15.0698C28.1731 15.5314 30.1412 18.1492 30.4285 18.5313C30.4451 18.5534 30.4561 18.568 30.4613 18.5743C31.9714 20.6654 33.4919 22.0968 34.5284 22.9479C34.5302 22.9493 34.5319 22.9508 34.5337 22.9523C34.5648 22.9778 34.5955 23.0028 34.6257 23.0273C34.8715 23.2263 35.0874 23.3909 35.2662 23.522C35.5422 23.7245 35.7298 23.8473 35.8025 23.895C35.8227 23.9082 35.834 23.9156 35.8359 23.9173C35.9959 24.0322 36.0599 24.2333 35.9319 24.3769C35.9074 24.4099 35.8735 24.4387 35.8356 24.4617C35.7301 24.5507 35.3759 24.8511 34.8724 25.3151C34.8724 25.3151 34.8724 25.3151 34.8724 25.3151C34.8329 25.3515 34.7926 25.3888 34.7514 25.4271C34.717 25.4591 34.682 25.4917 34.6465 25.5251C34.6465 25.5251 34.6465 25.5251 34.6465 25.5251C34.6464 25.5251 34.6463 25.5252 34.6463 25.5252C34.6456 25.5258 34.645 25.5264 34.6444 25.527C33.7459 26.3689 32.4802 27.637 31.2931 29.1166C29.9494 30.8115 28.1899 32.1041 26.2384 32.8797C24.3509 33.6266 22.2394 34 20 34C17.7606 34 15.6491 33.6266 13.7616 32.8797C11.8101 32.1041 10.0505 30.8115 8.70688 29.1166C7.51205 27.6494 6.24967 26.3814 5.35437 25.5364C5.35258 25.5347 5.35079 25.5331 5.349 25.5314C5.34841 25.5308 5.34782 25.5303 5.34724 25.5297C5.34629 25.5288 5.34535 25.5279 5.3444 25.527M6.96279 24.306C6.97133 24.3142 6.9799 24.3225 6.9885 24.3307C7.89775 25.2033 9.10249 26.4351 10.2577 27.8538L10.266 27.8639L10.2741 27.8741C11.3982 29.292 12.8706 30.3732 14.499 31.0206C16.124 31.6634 17.9813 32 20 32C22.0186 32 23.8758 31.6634 25.5008 31.0207C27.1292 30.3733 28.6018 29.292 29.7259 27.8741L29.7331 27.865L29.7331 27.865C30.8856 26.4287 32.1023 25.1851 33.029 24.3018C31.9066 23.3537 30.3769 21.8677 28.8612 19.7746C28.8592 19.7721 28.858 19.7705 28.8575 19.7699L28.8299 19.7332L28.8298 19.7332C28.5328 19.3381 26.9956 17.3769 24.8212 17.0476C23.6852 16.8779 22.4634 17.1505 21.109 18.0912L19.968 18.8838L18.827 18.0912C17.476 17.1528 16.257 16.8793 15.1234 17.0463C14.0123 17.2267 13.0391 17.8271 12.2874 18.4814C11.9194 18.8018 11.631 19.1123 11.4357 19.343C11.2864 19.5195 11.2194 19.6151 11.2114 19.624L11.1997 19.645L11.1348 19.7359C9.62465 21.8525 8.08875 23.3523 6.96279 24.306Z"
            fill="white"></path>
        <rect x="19" y="6" width="2" height="6" rx="1" fill="white"></rect>
        <rect x="27.5356" y="8" width="2" height="5" rx="1" transform="rotate(45 27.5356 8)"
            fill="white"></rect>
        <rect width="2" height="5" rx="1"
            transform="matrix(-0.707107 0.707107 0.707107 0.707107 12.4141 8)" fill="white"></rect>
        <path fill-rule="evenodd" clip-rule="evenodd"
            d="M14.3865 25H6V23H14.3865C15.4897 23 16.5224 23.3928 17.4445 24.0969C18.2526 24.7126 19.1358 25 20 25C20.8644 25 21.7477 24.7125 22.5559 24.0966L22.5585 24.0946C23.4845 23.3938 24.5159 23 25.6135 23H34V25H25.6135C25.0203 25 24.4036 25.2068 23.7668 25.6884C22.6283 26.5555 21.3237 27 20 27C18.6758 27 17.3707 26.5551 16.2319 25.6874L16.231 25.6867C15.6042 25.208 14.9886 25 14.3865 25Z"
            fill="white"></path>
        <path
            d="M5.08455 23.2715C5.1352 23.2308 5.22124 23.1416 5.29009 23.1384L5.54523 23.1738C5.57563 23.1941 5.57977 23.228 5.58933 23.262C5.60573 23.3204 5.62174 23.3858 5.62949 23.4459C5.63688 23.5031 5.62795 23.5622 5.63461 23.6199C5.64282 23.6911 5.66555 23.7604 5.67989 23.8306C5.69846 23.9214 5.70697 24.0142 5.71966 24.1058C5.72842 24.1691 5.74586 24.2342 5.75943 24.2968C5.81618 24.5584 5.77699 24.8502 5.73895 25.111C5.72079 25.2356 5.69711 25.3602 5.6602 25.4807C5.65118 25.5102 5.63776 25.5565 5.61689 25.5839C5.59799 25.6087 5.5687 25.5993 5.54602 25.5863C5.5033 25.5617 5.53442 25.5344 5.50006 25.5C5.42367 25.4236 5.28255 25.3352 5.2011 25.2642C5.1095 25.1843 5.02333 25.0961 4.93414 25.0134C4.84126 24.9272 4.78346 24.8312 4.72979 24.7185C4.66416 24.5806 4.56503 24.4728 4.47937 24.3479C4.4273 24.2721 4.33479 24.1838 4.33329 24.0865C4.33059 23.911 4.47688 23.8244 4.59867 23.727C4.63415 23.6986 4.6711 23.6702 4.70498 23.64C4.76433 23.5871 4.80704 23.5188 4.86169 23.4616C4.92846 23.3918 5.00931 23.3319 5.08455 23.2715Z"
            fill="white"></path>
    </svg>
</svg>