<svg xmlns="http://www.w3.org/2000/svg" viewBox="0 0 40 40" focusable="false"
    class="chakra-icon css-1jnlkf4" aria-hidden="true">
    <path fill-rule="evenodd" clip-rule="evenodd"
        d="M20 36C28.8366 36 36 28.8366 36 20C36 11.1634 28.8366 4 20 4C11.1634 4 4 11.1634 4 20C4 28.8366 11.1634 36 20 36ZM18.6309 22.7C18.8441 22.9526 19.1323 23.0789 19.4954 23.0789C19.8112 23.0789 20.0875 22.9684 20.3244 22.7474C20.5612 22.5263 20.7033 22.25 20.7507 21.9184C20.8138 21.4921 20.9559 21.1132 21.177 20.7816C21.398 20.45 21.7849 20.0158 22.3375 19.4789C23.048 18.8 23.5652 18.1526 23.8888 17.5368C24.2125 16.9211 24.3744 16.2342 24.3744 15.4763C24.3744 14.2447 23.948 13.1908 23.0954 12.3145C22.2428 11.4382 21.027 11 19.448 11C18.4849 11 17.6441 11.2092 16.9257 11.6276C16.2073 12.0461 15.627 12.5789 15.1849 13.2263C15.0112 13.4947 14.9599 13.7947 15.0309 14.1263C15.102 14.4579 15.2954 14.6868 15.6112 14.8132C15.8638 14.9237 16.1244 14.9316 16.3928 14.8368C16.6612 14.7421 16.8823 14.5684 17.0559 14.3158C17.2928 13.9684 17.6046 13.6763 17.9915 13.4395C18.3783 13.2026 18.8638 13.0842 19.448 13.0842C20.3007 13.0842 20.9638 13.3211 21.4375 13.7947C21.9112 14.2684 22.148 14.8605 22.148 15.5711C22.148 16.1553 21.9704 16.7039 21.6152 17.2171C21.2599 17.7303 20.7507 18.2868 20.0875 18.8868C19.5507 19.3605 19.152 19.8184 18.8915 20.2605C18.6309 20.7026 18.4612 21.2079 18.3823 21.7763C18.3349 22.1395 18.4178 22.4474 18.6309 22.7ZM18.2757 28.5145C18.5994 28.8382 18.9902 29 19.448 29C19.9059 29 20.2967 28.8382 20.6204 28.5145C20.9441 28.1908 21.1059 27.8 21.1059 27.3421C21.1059 26.8842 20.9441 26.4934 20.6204 26.1697C20.2967 25.8461 19.9059 25.6842 19.448 25.6842C18.9902 25.6842 18.5994 25.8461 18.2757 26.1697C17.952 26.4934 17.7902 26.8842 17.7902 27.3421C17.7902 27.8 17.952 28.1908 18.2757 28.5145Z"
        fill="white"></path>
</svg>