<svg xmlns="http://www.w3.org/2000/svg" viewBox="0 0 20 20" focusable="false"
    class="chakra-icon chakra-icon css-1crqejv">
    <path
        d="M8.30832 18.3333C8.24166 18.3333 8.17499 18.3166 8.11666 18.2916C7.90832 18.1998 7.78332 17.9828 7.81666 17.7658L8.64999 11.6313H4.66666C4.47499 11.6313 4.29999 11.5228 4.21666 11.3476C4.13332 11.1723 4.14999 10.972 4.27499 10.8218L11.2917 1.85803C11.4333 1.68276 11.675 1.61599 11.8833 1.7078C12.0917 1.7996 12.2167 2.0166 12.1833 2.2336L11.35 8.36801H15.3333C15.525 8.36801 15.7 8.47651 15.7833 8.65178C15.8667 8.82705 15.85 9.02736 15.725 9.17759L8.70832 18.1413C8.60832 18.2665 8.46666 18.3333 8.31666 18.3333H8.30832ZM5.69166 10.6298H9.21666C9.35832 10.6298 9.49999 10.6966 9.59166 10.8051C9.68332 10.9136 9.73332 11.0555 9.70832 11.2057L9.04166 16.0798L14.2917 9.37789H10.7667C10.625 9.37789 10.4833 9.31112 10.3917 9.20262C10.3 9.09412 10.25 8.95224 10.275 8.80201L10.9417 3.92787L5.69166 10.6298Z"
        fill="white"></path>
</svg>