<svg xmlns="http://www.w3.org/2000/svg" viewBox="0 0 40 40" focusable="false"
    class="chakra-icon chakra-icon css-1d6j3uy">
    <path fill="white"
        d="M20 7a10.161 10.161 0 00-7.322 3.13c-1.5 1.552-2.41 3.477-2.795 5.485C5.97 16.4 3 19.937 3 24.205 3 29.05 6.819 33 11.5 33h18.109C33.684 33 37 29.57 37 25.353c0-3.98-2.963-7.22-6.721-7.575.017-2.768-.933-5.542-2.969-7.647C25.295 8.046 22.645 7 20 7zm0 2.167c2.084 0 4.147.801 5.74 2.45 1.84 1.903 2.786 4.421 2.499 6.896-.02.16-.006.521.04.677.046.155.124.298.228.42a1.078 1.078 0 00.83.39h.438c2.886 0 5.1 2.368 5.1 5.353s-2.38 5.48-5.266 5.48H11.5c-3.483 0-6.375-3.024-6.375-6.627 0-3.403 2.661-5.948 5.865-6.248.251-.026.487-.14.667-.322.18-.182.296-.423.326-.682.204-1.818.914-3.94 2.266-5.338A7.945 7.945 0 0120 9.166zm0 7.488a.976.976 0 00-.75.299l-4.066 3.345a1.186 1.186 0 00-.07 1.625c.393.442 1.142.474 1.571.071l2.253-2.079v7.349c0 .633.45 1.147 1.062 1.147.612 0 1.063-.514 1.063-1.147v-7.349l2.252 2.08c.43.402 1.052.59 1.466.17.437-.442.357-1.217-.07-1.624l-3.96-3.588c-.22-.208-.381-.299-.751-.299z"></path>
</svg>