<svg xmlns="http://www.w3.org/2000/svg" viewBox="0 0 24 24" focusable="false"
    class="chakra-icon css-12ivpu9">
    <path fill="white"
        d="M11.083 21.6h1.843c.638 0 1.113-.383 1.268-1.012l.4-1.76.439-.156 1.523.949c.547.356 1.158.273 1.614-.183l1.277-1.277c.466-.456.539-1.067.192-1.614l-.958-1.523.155-.429 1.76-.401c.63-.155 1.013-.63 1.013-1.268V11.11c0-.639-.383-1.113-1.012-1.268l-1.742-.42-.174-.428.967-1.524c.347-.547.274-1.149-.192-1.614L18.18 4.57c-.456-.447-1.058-.53-1.615-.183l-1.523.949-.447-.164-.401-1.76c-.155-.639-.63-1.013-1.268-1.013h-1.843c-.647 0-1.112.374-1.268 1.012l-.4 1.76-.457.165-1.523-.949c-.557-.346-1.159-.264-1.605.183L4.543 5.857c-.456.465-.538 1.067-.182 1.614l.958 1.524-.174.428-1.733.42c-.638.155-1.012.63-1.012 1.268v1.815c0 .638.383 1.113 1.012 1.268l1.752.401.155.429-.958 1.523c-.347.547-.274 1.158.192 1.614l1.277 1.277c.456.456 1.067.539 1.614.183l1.523-.949.447.155.402 1.76c.155.63.62 1.013 1.267 1.013zm.119-1.104c-.219 0-.338-.1-.374-.3l-.53-2.217a6.13 6.13 0 01-1.349-.538l-1.934 1.204c-.173.11-.337.091-.501-.064L5.41 17.468c-.155-.155-.173-.31-.055-.492l1.195-1.934c-.173-.356-.392-.84-.52-1.34l-2.225-.52c-.201-.037-.31-.156-.31-.375V11.22c0-.219.1-.337.31-.383l2.216-.52c.137-.52.365-1.012.52-1.35L5.346 7.043c-.118-.192-.11-.347.046-.502l1.112-1.104c.165-.155.32-.173.511-.063l1.916 1.185a8.51 8.51 0 011.377-.538l.52-2.216c.036-.201.155-.301.374-.301h1.605c.22 0 .338.09.374.3l.53 2.235c.51.128.966.338 1.35.53l1.924-1.195c.191-.11.346-.092.51.063l1.113 1.104c.155.155.164.31.046.502l-1.195 1.924c.164.338.392.821.529 1.35l2.216.52c.21.046.301.164.301.383v1.587c0 .22-.1.338-.3.374l-2.226.52c-.137.51-.338.985-.53 1.34l1.196 1.935c.118.182.1.337-.046.492l-1.113 1.113c-.164.155-.328.173-.501.064L15.05 17.44c-.365.21-.83.401-1.34.538l-.53 2.216c-.036.21-.155.301-.374.301h-1.605zm.803-5.007c1.915 0 3.484-1.578 3.484-3.494 0-1.897-1.569-3.466-3.485-3.466-1.906 0-3.484 1.57-3.484 3.466 0 1.916 1.578 3.494 3.485 3.494zm0-1.095c-1.305 0-2.39-1.085-2.39-2.399 0-1.295 1.085-2.38 2.39-2.38 1.295 0 2.38 1.085 2.38 2.38 0 1.305-1.085 2.4-2.38 2.4z"></path>
</svg>