<svg xmlns="http://www.w3.org/2000/svg" viewBox="0 0 24 24" focusable="false"
    class="chakra-icon chakra-icon css-1d6j3uy">
    <svg width="24" height="24" viewBox="0 0 24 24" fill="none" xmlns="http://www.w3.org/2000/svg">
        <path fill-rule="evenodd" clip-rule="evenodd"
            d="M17.3301 5.45783C15.4301 4.08783 13.0801 3.59783 10.7301 4.02783L11.8001 3.03783C12.0401 2.80783 12.0601 2.42783 11.8301 2.18783C11.6001 1.94783 11.2301 1.93783 10.9801 2.15783L8.78009 4.21783C8.66009 4.32783 8.59009 4.48783 8.59009 4.65783C8.59009 4.82783 8.66009 4.98783 8.78009 5.09783L10.5301 6.72783C10.0401 7.20783 9.73009 7.87783 9.73009 8.62783C9.73009 10.0978 10.9201 11.2878 12.3901 11.2878C13.8601 11.2878 15.0501 10.0978 15.0501 8.62783C15.0501 7.15783 13.8601 5.96783 12.3901 5.96783C12.1101 5.96783 11.8401 6.02783 11.5801 6.10783C11.5701 6.09449 11.5612 6.08005 11.5523 6.0656C11.5345 6.03671 11.5168 6.00783 11.4901 5.98783L10.7101 5.25783C12.8201 4.79783 14.9401 5.21783 16.6401 6.43783C18.4701 7.75783 19.5301 9.77783 19.5301 11.9878C19.5301 12.8078 19.3801 13.6078 19.0901 14.3778C18.9701 14.6878 19.1301 15.0378 19.4401 15.1478C19.5101 15.1778 19.5801 15.1878 19.6501 15.1878C19.8901 15.1878 20.1201 15.0378 20.2101 14.7978C20.5501 13.8978 20.7301 12.9578 20.7301 11.9878C20.7301 9.42783 19.4601 6.98783 17.3501 5.46783L17.3301 5.45783ZM13.8401 8.61783C13.8401 9.41783 13.1901 10.0778 12.3801 10.0778C11.5701 10.0778 10.9201 9.42783 10.9201 8.61783C10.9201 7.80783 11.5701 7.15783 12.3801 7.15783C13.1901 7.15783 13.8401 7.80783 13.8401 8.61783ZM13.73 16.4478C13.49 16.2178 13.11 16.2378 12.88 16.4778C12.65 16.7178 12.67 17.0978 12.91 17.3278L14.32 18.6378C12.14 19.1978 9.93 18.8278 8.15 17.5778C6.31 16.2778 5.2 14.1878 5.2 11.9878C5.2 10.9978 5.41 10.0478 5.83 9.15783C5.97 8.85783 5.83 8.49783 5.54 8.35783C5.24 8.21783 4.88 8.35783 4.74 8.64783C4.25 9.69783 4 10.8178 4 11.9878C4 14.5778 5.29 17.0378 7.45 18.5578C8.9 19.5778 10.59 20.0978 12.34 20.0978C12.89 20.0978 13.44 20.0478 14 19.9378L12.91 20.9578C12.67 21.1878 12.65 21.5678 12.88 21.8078C13 21.9378 13.16 21.9978 13.32 21.9978C13.47 21.9978 13.61 21.9478 13.73 21.8378L16.15 19.5778C16.27 19.4678 16.34 19.3078 16.34 19.1378C16.34 18.9678 16.27 18.8078 16.15 18.6978L13.73 16.4378V16.4478ZM10.21 11.6578H14.31H14.32C16.6 11.7578 18.19 13.5378 18.38 16.1878C18.38 16.8078 18.15 17.3578 17.74 17.7578C17.62 17.8678 17.48 17.9278 17.32 17.9278C17.16 17.9278 17.01 17.8678 16.89 17.7478C16.65 17.5078 16.65 17.1278 16.89 16.8978C17.07 16.7178 17.17 16.4778 17.17 16.2278C17.05 14.6778 16.23 12.9378 14.28 12.8578H10.23C9.28001 12.8978 8.49001 13.3678 7.98001 14.2078C7.81001 14.4878 7.45001 14.5778 7.16001 14.4078C6.88001 14.2378 6.79001 13.8678 6.96001 13.5878C7.68001 12.4078 8.83001 11.7178 10.21 11.6578Z"
            fill="white"></path>
    </svg>
</svg>