<svg xmlns="http://www.w3.org/2000/svg" viewBox="0 0 24 24" focusable="false"
    class="chakra-icon css-kau9go" aria-hidden="true">
    <path fill="white"
        d="M20.647 14.27l-3.79 1.941c-.23.12-.52.41-.64.64l-1.941 3.791c-.24.47-.63.47-.87 0l-1.941-3.79c-.12-.23-.41-.52-.64-.64L7.034 14.27c-.47-.24-.47-.63 0-.87l3.79-1.941c.23-.12.52-.41.64-.64l1.941-3.791c.24-.47.63-.47.87 0l1.941 3.79c.12.23.41.52.64.64l3.791 1.941c.47.24.47.63 0 .87zM6.794 9.12l.58-1.741 1.74-.58c.75-.25.75-.66 0-.91l-1.74-.58-.58-1.741c-.25-.75-.66-.75-.91 0l-.58 1.74-1.741.58c-.75.25-.75.66 0 .91l1.74.58.58 1.741c.25.75.66.75.91 0z"></path>
</svg>