<svg xmlns="http://www.w3.org/2000/svg" viewBox="0 0 20 20" focusable="false"
    class="chakra-icon css-n4g5d6">
    <path fill="white"
        d="M15.227 4.5h-1.315V3.083a.58.58 0 00-.582-.583.58.58 0 00-.583.583V4.5H7.253V3.083A.58.58 0 006.67 2.5a.58.58 0 00-.582.583V4.5H4.772A2.286 2.286 0 002.5 6.792v8.416A2.28 2.28 0 004.772 17.5h10.455a2.286 2.286 0 002.273-2.292V6.792A2.28 2.28 0 0015.227 4.5zm-10.455 1h10.455c.7 0 1.274.583 1.274 1.292v.575H3.5v-.575c0-.709.574-1.292 1.273-1.292zm10.455 11H4.772c-.699 0-1.273-.583-1.273-1.292V8.367H16.5v6.841c0 .709-.574 1.292-1.274 1.292z"></path>
</svg>