<svg xmlns="http://www.w3.org/2000/svg" viewBox="0 0 24 24" focusable="false"
    class="chakra-icon chakra-icon css-1d6j3uy">
    <path fill="white"
        d="M17.25 4H6.75C4.13 4 2 6.13 2 8.75v6.5C2 17.87 4.13 20 6.75 20h10.5c2.62 0 4.75-2.13 4.75-4.75v-6.5C22 6.13 19.87 4 17.25 4zm3.55 11.25a3.55 3.55 0 01-3.55 3.55H6.75a3.55 3.55 0 01-3.55-3.55v-6.5A3.55 3.55 0 016.75 5.2h10.5a3.55 3.55 0 013.55 3.55v6.5zm-7.39-.22H6.59c-.33 0-.6.27-.6.6 0 .33.27.6.6.6h6.82c.33 0 .6-.27.6-.6 0-.33-.27-.6-.6-.6zm-2.82-2.63h6.82c.33 0 .6.27.6.6 0 .33-.27.6-.6.6h-6.82c-.33 0-.6-.27-.6-.6 0-.33.27-.6.6-.6zm-4 1.2h1.8c.33 0 .6-.27.6-.6 0-.33-.27-.6-.6-.6h-1.8c-.33 0-.6.27-.6.6 0 .33.27.6.6.6zm9.02 1.43h1.8c.33 0 .6.27.6.6 0 .33-.27.6-.6.6h-1.8c-.33 0-.6-.27-.6-.6 0-.33.27-.6.6-.6z"></path>
</svg>