<svg xmlns="http://www.w3.org/2000/svg" viewBox="0 0 40 40" focusable="false"
    class="chakra-icon css-1fg4omb">
    <path fill-rule="evenodd" clip-rule="evenodd"
        d="M19.8251 18.6972C22.3406 18.6972 24.38 16.659 24.38 14.1445C24.38 11.6299 22.3406 9.59167 19.8251 9.59167C17.3097 9.59167 15.2703 11.6299 15.2703 14.1445C15.2703 16.659 17.3097 18.6972 19.8251 18.6972ZM17.2469 14.1445C17.2469 12.7214 18.4011 11.5676 19.8251 11.5676C21.2492 11.5676 22.4034 12.7214 22.4034 14.1445C22.4034 15.5675 21.2492 16.7213 19.8251 16.7213C18.4011 16.7213 17.2469 15.5675 17.2469 14.1445Z"
        fill="#8C8C96"></path>
    <path
        d="M13 29C12.4477 29 12 29.4477 12 30C12 30.5523 12.4477 31 13 31H27C27.5523 31 28 30.5523 28 30C28 29.4477 27.5523 29 27 29H13Z"
        fill="#8C8C96"></path>
    <path fill-rule="evenodd" clip-rule="evenodd"
        d="M8 4C6.89543 4 6 4.88122 6 5.96825V34.0317C6 35.1188 6.89543 36 8 36H32C33.1046 36 34 35.1188 34 34.0317V5.96825C34 4.88122 33.1046 4 32 4H8ZM32 5.96825H8V24H11.3182C12.0713 21.8496 13.6201 20.116 16.0075 19.8033C17.04 19.6681 18.2996 19.5784 19.8251 19.5784C21.3506 19.5784 22.6103 19.6681 23.6427 19.8033C26.0302 20.116 27.579 21.8496 28.3321 24H32V5.96825ZM8 26L8 34.0317H32V26H8ZM13.447 24H26.2032C25.5848 22.7117 24.5997 21.9162 23.3859 21.7572C22.447 21.6342 21.2736 21.5491 19.8251 21.5491C18.3767 21.5491 17.2033 21.6342 16.2643 21.7572C15.0506 21.9162 14.0654 22.7117 13.447 24Z"
        fill="#8C8C96"></path>
</svg>