<svg xmlns="http://www.w3.org/2000/svg" viewBox="0 0 24 24" focusable="false"
    class="chakra-icon chakra-icon css-1d6j3uy">
    <path fill="white"
        d="M20.996 9.86c.24-.23.62-.23.85 0h-.02c.231.24.231.62 0 .85-1.501 1.488-3.834 2.627-6.417 2.627-.791 0-1.602-.11-2.423-.35 1.01 3.498-.32 6.875-2.283 8.833-.11.12-.27.18-.42.18-.151 0-.301-.06-.421-.18a.608.608 0 010-.85c.25-.259.49-.539.72-.848l-5.056-5.046a.6.6 0 010-.85c.24-.23.62-.23.851 0l4.856 4.846c.3-.58.541-1.209.701-1.868l-2.853-2.848a.608.608 0 010-.85c.23-.229.62-.229.85 0l2.204 2.2a7.681 7.681 0 00-.681-3.468c-1.763-3.917-.35-7.874 1.842-10.062.24-.23.62-.24.851 0 .23.24.23.62 0 .85-.25.25-.49.539-.72.849l5.036 5.036c.23.24.23.62 0 .849-.11.12-.27.18-.42.18-.151 0-.301-.06-.421-.18l-4.857-4.846a8.37 8.37 0 00-.7 1.868l2.853 2.848c.23.24.23.62 0 .85-.11.12-.27.18-.42.18-.15 0-.3-.06-.421-.18L11.874 8.28c-.04 1.05.13 2.148.591 3.258 3.334 1.388 6.669.18 8.53-1.68zm-12.435.79c.33 0 .6.269.6.599 0 .33-.27.6-.6.6-2.043 0-4.115.848-5.547 2.277-.11.12-.27.18-.42.18-.15 0-.301-.06-.421-.18a.608.608 0 010-.849A9.092 9.092 0 018.56 10.65z"></path>
</svg>