<svg xmlns="http://www.w3.org/2000/svg" viewBox="0 0 24 24" focusable="false"
    class="chakra-icon chakra-icon css-1crqejv">
    <path fill="white"
        d="M7.54279 9.71156C7.65284 10.0721 7.84294 10.2223 8.1731 10.2223C8.53328 10.2223 8.79341 9.98196 8.79341 9.65147C8.79341 9.5413 8.7734 9.44115 8.71337 9.28091L6.27215 2.65098C6.10206 2.2003 5.84193 2 5.40171 2C4.96149 2 4.69135 2.21032 4.52127 2.65098L2.08004 9.29093C2.02001 9.44115 2 9.56133 2 9.66148C2 10.002 2.25013 10.2323 2.62031 10.2323C2.94047 10.2323 3.13057 10.0721 3.24062 9.71156L3.85093 7.97896H6.92247L7.53278 9.71156H7.54279ZM4.17109 6.95743L5.37169 3.42213H5.40171L6.61232 6.95743H4.17109ZM14.9666 13.2969C14.6364 13.2869 14.3763 13.0065 14.3863 12.676L14.4063 12.666C14.4463 11.6544 14.3963 10.6529 14.2662 9.72154C13.2257 9.58133 12.1051 9.53126 10.9846 9.60136C10.6944 9.62139 10.3742 9.37102 10.3542 9.04052C10.3342 8.71003 10.5844 8.42961 10.9145 8.40958C11.9851 8.34949 13.0356 8.37953 14.0361 8.4897C13.916 7.93887 13.766 7.41809 13.5859 6.96741C13.1556 5.90582 12.6054 5.25485 12.1051 5.18474H12.0251C11.6049 5.19476 11.1446 5.59536 10.7444 6.34648C10.7044 6.41659 10.6344 6.48669 10.5643 6.53677C10.5043 6.57683 10.4443 6.60687 10.3843 6.6269C10.3342 6.64693 10.2742 6.64693 10.2242 6.64693H10.1942C10.1852 6.64693 10.1762 6.64491 10.1663 6.64268C10.1541 6.63996 10.1406 6.63692 10.1241 6.63692L10.1241 6.63692C10.0741 6.6269 10.0241 6.61689 9.98405 6.59686C9.97405 6.58684 9.95404 6.58684 9.94403 6.58684C9.93903 6.58684 9.93403 6.58184 9.92903 6.57683L9.92902 6.57683C9.92402 6.57182 9.91902 6.56681 9.91402 6.56681C9.86399 6.53677 9.83398 6.50673 9.79396 6.46667L9.79396 6.46666C9.78687 6.45957 9.77978 6.45373 9.77314 6.44826C9.76102 6.43828 9.75039 6.42952 9.74393 6.41659C9.71392 6.36651 9.6839 6.31644 9.66389 6.25635C9.65389 6.24633 9.64388 6.23632 9.64388 6.2263L9.31372 5.05455C9.30371 5.00448 9.30371 4.96442 9.30371 4.91435V4.91434V4.81419C9.30371 4.78882 9.31174 4.76747 9.32016 4.74505C9.32504 4.73206 9.33006 4.71871 9.33373 4.70402C9.34311 4.68524 9.34809 4.66646 9.3528 4.64871L9.3528 4.6487C9.35814 4.6286 9.36312 4.60981 9.37375 4.59386C9.37978 4.57573 9.3931 4.56125 9.40711 4.54602C9.41632 4.536 9.42584 4.52566 9.43378 4.51374C9.45379 4.47368 9.4838 4.44364 9.51381 4.41359L9.51382 4.41359C9.52518 4.40222 9.54299 4.39407 9.56176 4.38549L9.56176 4.38549C9.57605 4.37895 9.59089 4.37217 9.60386 4.36351C9.61924 4.35582 9.63314 4.34664 9.6467 4.33769C9.66842 4.32335 9.68927 4.30959 9.71392 4.30342C10.4543 4.08309 11.2047 3.97293 11.955 3.97293H12.1051C12.1201 3.97293 12.1351 3.97543 12.1501 3.97793C12.1651 3.98044 12.1802 3.98294 12.1952 3.98294C14.2162 4.03302 16.1772 4.83422 17.6579 6.31644C19.1687 7.82871 19.9991 9.83171 19.9991 11.9749C19.9991 12.3054 19.7289 12.5758 19.3988 12.5758C19.0686 12.5758 18.7985 12.3054 18.7985 11.9749C18.7985 11.4541 18.1281 10.8733 17.0076 10.4126C16.5574 10.2323 16.0371 10.0821 15.4868 9.95189C15.5869 10.8432 15.6269 11.7746 15.5869 12.716C15.5769 13.0465 15.3067 13.2969 14.9866 13.2969H14.9666ZM18.4383 9.80166C18.1081 8.82019 17.5579 7.92886 16.8075 7.17773C16.0571 6.4266 15.1567 5.89581 14.1962 5.56531C14.3663 5.85575 14.5363 6.16621 14.6764 6.52675C14.9365 7.16772 15.1466 7.89881 15.2967 8.69C16.0871 8.84022 16.8175 9.05054 17.4578 9.31093C17.848 9.47117 18.1582 9.63141 18.4383 9.80166ZM10.4242 17.0025C10.8844 18.1242 11.4647 18.7952 11.995 18.7952L11.985 18.7851C12.3151 18.7851 12.5853 19.0556 12.5853 19.3861C12.5853 19.7165 12.3151 19.9869 11.985 19.9869C9.85391 19.9869 7.8429 19.1557 6.33214 17.6434C4.82138 16.1312 3.99097 14.1282 3.99097 11.985C3.99097 11.6545 4.2611 11.3841 4.59127 11.3841C4.92143 11.3841 5.19157 11.6545 5.19157 11.985C5.19157 12.5158 5.86191 13.0966 6.98247 13.5573C7.4327 13.7476 7.96296 13.8878 8.51324 14.018C8.4432 13.367 8.39318 12.686 8.39318 11.995C8.39318 11.6645 8.66331 11.3941 8.99348 11.3941C9.32365 11.3941 9.59378 11.6645 9.59378 11.995C9.59378 12.7761 9.65381 13.5173 9.75386 14.2383C10.3141 14.3185 10.8944 14.3685 11.4947 14.3886C11.8249 14.3986 12.075 14.679 12.075 15.0095C12.065 15.33 11.7949 15.5904 11.4747 15.5904H11.4547C10.9545 15.5703 10.4542 15.5303 9.97397 15.4802C10.094 16.031 10.2441 16.5518 10.4242 17.0025ZM5.55175 14.1782C5.89192 15.1497 6.43219 16.0511 7.18257 16.8022C7.93295 17.5533 8.8334 18.1041 9.80389 18.4346C9.6338 18.1542 9.47372 17.8437 9.31364 17.4532C9.05351 16.8122 8.85341 16.0811 8.70333 15.2899C7.90293 15.1297 7.17257 14.9294 6.53224 14.669C6.14205 14.5087 5.83189 14.3485 5.55175 14.1782ZM18.3982 14.7692H21.4397H21.4497C21.7499 14.7692 22 15.0195 22 15.32C22 15.6204 21.7499 15.8708 21.4497 15.8708H20.4492C20.2091 16.7822 19.6188 17.8037 18.6483 18.9655C19.0085 19.336 19.3887 19.7166 19.8189 20.1172C20.039 20.3275 20.059 20.678 19.8489 20.8984C19.7388 21.0185 19.5888 21.0786 19.4387 21.0786C19.3086 21.0786 19.1786 21.0386 19.0685 20.9384C18.6383 20.5478 18.2681 20.1673 17.9079 19.7967C17.3076 20.4377 16.6173 21.1287 15.7969 21.8598C15.6868 21.9499 15.5567 22 15.4267 22C15.2766 22 15.1265 21.9399 15.0165 21.8197C14.8164 21.5894 14.8264 21.2389 15.0565 21.0386C15.8769 20.2975 16.5672 19.6164 17.1575 18.9755C16.6873 18.4246 16.2871 17.8838 15.9569 17.3631C15.7969 17.1027 15.8769 16.7622 16.137 16.6019C16.3972 16.4417 16.7373 16.5218 16.8974 16.7822C17.1676 17.2128 17.5077 17.6735 17.8979 18.1342C18.5983 17.2829 19.0685 16.5318 19.2986 15.8708H14.2561C13.9559 15.8708 13.7058 15.6204 13.7058 15.32C13.7058 15.0195 13.9559 14.7692 14.2561 14.7692H17.2976V13.8478C17.2976 13.5473 17.5477 13.297 17.8479 13.297C18.148 13.297 18.3982 13.5473 18.3982 13.8478V14.7692Z"></path>
    <svg viewBox="0 0 20 20" focusable="false" class="chakra-icon chakra-icon css-1crqejv">
        <path
            d="M8.30832 18.3333C8.24166 18.3333 8.17499 18.3166 8.11666 18.2916C7.90832 18.1998 7.78332 17.9828 7.81666 17.7658L8.64999 11.6313H4.66666C4.47499 11.6313 4.29999 11.5228 4.21666 11.3476C4.13332 11.1723 4.14999 10.972 4.27499 10.8218L11.2917 1.85803C11.4333 1.68276 11.675 1.61599 11.8833 1.7078C12.0917 1.7996 12.2167 2.0166 12.1833 2.2336L11.35 8.36801H15.3333C15.525 8.36801 15.7 8.47651 15.7833 8.65178C15.8667 8.82705 15.85 9.02736 15.725 9.17759L8.70832 18.1413C8.60832 18.2665 8.46666 18.3333 8.31666 18.3333H8.30832ZM5.69166 10.6298H9.21666C9.35832 10.6298 9.49999 10.6966 9.59166 10.8051C9.68332 10.9136 9.73332 11.0555 9.70832 11.2057L9.04166 16.0798L14.2917 9.37789H10.7667C10.625 9.37789 10.4833 9.31112 10.3917 9.20262C10.3 9.09412 10.25 8.95224 10.275 8.80201L10.9417 3.92787L5.69166 10.6298Z"
            fill="white"></path>
    </svg>
</svg>