<svg xmlns="http://www.w3.org/2000/svg" width="111" height="30" viewBox="0 0 111 30" class="">
    <g clip-path="url(#logo_svg__a)">
        <path fill="#fff"
            d="M21.678 9.881v8.907l-.038.055c-.567.81-3.694 4.845-9.688 4.845C5.363 23.688 0 18.368 0 11.828 0 8.652 1.238 5.677 3.487 3.45 5.734 1.225 8.74 0 11.953 0 15.5 0 18.89 1.417 20.8 3.698l.124.147-2.704 2.851-.16-.16c-1.75-1.764-3.52-2.484-6.108-2.484-4.229 0-7.54 3.417-7.54 7.778 0 2.108.787 4.073 2.22 5.534a7.397 7.397 0 0 0 5.32 2.243c2.324 0 3.938-.584 5.377-1.952v-3.658h-4.865V9.883h9.213v-.002Zm17.512 5.102c0-6.58-2.728-9.887-7.877-9.887-5.15 0-8.115 3.306-8.115 8.436 0 6.007 2.796 9.044 8.388 9.044 3.58 0 6.343-1.923 7.365-5.33h-4.569c-.307 1.146-1.568 1.855-3 1.855-2.182 0-3.614-1.62-3.75-4.117H39.19Zm-11.423-2.767c.17-2.294 1.636-3.644 3.41-3.644 1.773 0 3.375 1.18 3.444 3.644h-6.854Zm28.164 9.92V10.63c0-3.61-2.353-5.534-5.558-5.534-2.694 0-4.399 1.013-5.421 2.868v-2.43h-4.228v16.602h4.432V12.62c0-2.531 1.125-3.813 3.444-3.813 2.115 0 2.864.708 2.864 3.273v10.056h4.467Zm17.15 0V10.63c0-3.61-2.353-5.534-5.558-5.534-2.693 0-4.398 1.013-5.42 2.868v-2.43h-4.229v16.602h4.432V12.62c0-2.531 1.126-3.813 3.445-3.813 2.114 0 2.864.708 2.864 3.273v10.056h4.466Zm12.615.507c0 2.194-1.466 3.577-3.069 3.577-2.319 0-3.477-1.215-3.477-3.172h-4.126c0 4.285 2.488 6.95 7.399 6.95 4.296 0 7.706-2.732 7.706-7.423V5.535h-4.433V15.66c0 1.789-1.397 3.104-3.41 3.104-1.875 0-2.83-1.045-2.83-3.104V5.535h-4.432V16.3c0 3.645 2.625 6.007 6.137 6.007 2.08 0 3.922-.878 4.534-2.362v2.7h.001ZM99 8.567V3.575a.94.94 0 0 0-.946-.936.941.941 0 0 0-.946.936v4.992c0 .516.423.936.946.936a.94.94 0 0 0 .946-.936Zm3 2.653V1.151a.941.941 0 0 0-.946-.936.94.94 0 0 0-.945.936v10.07a.94.94 0 0 0 .945.935.941.941 0 0 0 .946-.936Zm3 2.868V3.944a.94.94 0 0 0-.945-.936.941.941 0 0 0-.946.936v10.145c0 .517.423.936.946.936a.94.94 0 0 0 .945-.936ZM108 11.22V1.151a.941.941 0 0 0-.946-.936.941.941 0 0 0-.946.936v10.07c0 .515.423.935.946.935a.941.941 0 0 0 .946-.936Zm3-2.653V3.575a.941.941 0 0 0-.946-.936.94.94 0 0 0-.945.936v4.992a.94.94 0 0 0 .945.936.941.941 0 0 0 .946-.936Z"></path>
    </g>
    <defs>
        <clipPath id="logo_svg__a">
            <path fill="#fff" d="M0 0h111v30H0z"></path>
        </clipPath>
    </defs>
</svg>